<?xml version="1.0" encoding="utf-8"?>
<!-- Generator: Adobe Illustrator 27.5.0, SVG Export Plug-In . SVG Version: 6.00 Build 0)  -->
<svg version="1.1" id="Layer_1" xmlns="http://www.w3.org/2000/svg" xmlns:xlink="http://www.w3.org/1999/xlink" x="0px" y="0px"
	 viewBox="0 0 4000 9000" style="enable-background:new 0 0 4000 9000;" xml:space="preserve">
<g>
	<rect y="0" style="fill-rule:evenodd;clip-rule:evenodd;fill:#FCFCFC;" width="4000" height="9000"/>
	<g>
		<defs>
			<path id="SVGID_1_" d="M2805.486,7862.113l-19.53-3.445l-3.017,0.347C2790.524,7860.072,2798.042,7861.111,2805.486,7862.113
				 M2890.631,7860.587c-16.362-3.146-33.003-6.423-49.919-9.83c-4.165,0.75-8.385,1.483-12.667,2.178
				c17.302,2.958,34.24,5.746,50.854,8.399C2882.856,7861.105,2886.751,7860.853,2890.631,7860.587z M2959.061,7873.305l-24.254-4.4
				l-3.661,0.42C2940.566,7870.705,2949.875,7872.026,2959.061,7873.305z M813.068,4634.995l-0.431-0.521l0.47,0.596
				L813.068,4634.995z M2955.137,7853.918c-21.215-4.498-42.883-9.197-64.965-14.089c-5.486,1.461-11.089,2.858-16.832,4.204
				c21.83,4.291,43.163,8.363,64.014,12.211C2943.405,7855.521,2949.321,7854.741,2955.137,7853.918z M3040.444,7871.399
				c-17.106-3.381-34.481-6.876-52.203-10.54c-4.165,0.786-8.385,1.553-12.684,2.281c17.996,3.185,35.64,6.208,52.897,9.051
				C3032.501,7871.95,3036.486,7871.685,3040.444,7871.399z M3113.761,7885.348c-10.199-1.867-20.526-3.79-30.949-5.76l-4.461,0.535
				C3090.346,7881.948,3102.146,7883.691,3113.761,7885.348z M878.106,4715.485l-3.846-8.175
				c-8.105-9.449-16.149-18.886-24.165-28.329l3.263,6.188C861.554,4695.267,869.805,4705.374,878.106,4715.485z M901.644,4764.509
				l-0.543-1.111l-6.896-8.278L901.644,4764.509z M2635.819,7848.978l-2.401,0.254l16.865,2.214L2635.819,7848.978z
				 M2691.917,7841.113c-4.136,0.717-8.323,1.417-12.566,2.08c16.647,2.731,32.998,5.332,49.04,7.794
				c3.862-0.224,7.669-0.47,11.453-0.722C2724.115,7847.327,2708.145,7844.279,2691.917,7841.113z M2742.939,7830.383
				c-5.586,1.411-11.257,2.782-17.089,4.081c21.17,4.019,41.887,7.839,62.178,11.467c6.09-0.697,12.068-1.45,17.946-2.248
				C2785.341,7839.423,2764.361,7835.003,2742.939,7830.383z M2788.279,7816.873c-5.945,2.085-12.085,4.067-18.366,5.998
				c24.713,5.245,48.85,10.235,72.466,15.001c7.008-1.302,13.837-2.687,20.487-4.148l-25.167-5.707
				C2821.075,7824.217,2804.624,7820.512,2788.279,7816.873z M944.236,4794.917c-1.942-4.52-3.829-9.032-5.732-13.549
				c-10.926-12.452-21.808-24.903-32.583-37.353l6.174,12.578C922.724,4769.365,933.455,4782.136,944.236,4794.917z
				 M966.71,4845.464c-1.405-3.062-2.866-6.141-4.249-9.203c-8.436-9.899-16.837-19.785-25.178-29.67l3.778,7.271
				C949.553,4824.395,958.118,4834.929,966.71,4845.464z M990.035,4895.021l-1.064-2.225l-13.283-16.09L990.035,4895.021z
				 M2484.382,7839.924l-1.909,0.207l13.199,1.651L2484.382,7839.924z M2541.925,7832.048c-4.125,0.694-8.323,1.357-12.55,2.009
				c16.099,2.524,31.923,4.937,47.479,7.227l11.273-0.708C2572.952,7837.836,2557.559,7834.998,2541.925,7832.048z
				 M2593.025,7821.746c-5.262,1.254-10.63,2.458-16.076,3.622c20.655,3.787,40.879,7.389,60.7,10.809
				c6.157-0.691,12.214-1.424,18.17-2.206c-9.633-1.937-19.351-3.898-29.152-5.914
				C2615.382,7825.913,2604.181,7823.82,2593.025,7821.746z M2638.808,7809c-5.368,1.738-10.826,3.434-16.44,5.058l6.711,1.268
				l0.101,0.02c21.842,4.483,43.258,8.769,64.232,12.866c7.014-1.246,13.871-2.572,20.571-3.963
				C2688.587,7818.978,2663.538,7813.901,2638.808,7809z M2680.19,7793.534c-5.609,2.424-11.414,4.758-17.358,7.025
				c23.706,4.758,47.702,9.684,72.007,14.786h0.05l9.018,1.956c6.997-1.822,13.792-3.736,20.392-5.74
				C2735.83,7805.303,2707.803,7799.299,2680.19,7793.534z M1012.364,4874.669c-2.295-5.897-4.579-11.8-6.812-17.691
				c-13.227-14.758-26.376-29.505-39.424-44.252c2.474,5.604,4.92,11.198,7.456,16.815
				C986.408,4844.579,999.349,4859.625,1012.364,4874.669z M1032.985,4925.604c-2.043-4.853-4.025-9.704-6.012-14.557
				c-11.206-12.849-22.368-25.69-33.434-38.534l6.527,13.583C1010.959,4899.265,1021.935,4912.424,1032.985,4925.604z
				 M1055.107,4976.573l-4.618-10.283c-8.771-10.361-17.52-20.725-26.202-31.081l4.4,8.559
				C1037.429,4954.7,1046.246,4965.632,1055.107,4976.573z M1078.034,5026.542l-1.562-3.358l-17.162-21l0.342,0.644
				C1065.753,5010.732,1071.871,5018.636,1078.034,5026.542z M2269.996,7824.164l4.679-0.319
				c-14.761-1.746-29.393-3.423-43.924-5.063C2244.012,7820.654,2257.093,7822.443,2269.996,7824.164z M2332.061,7831.637
				l-1.522,0.176l10.434,1.229L2332.061,7831.637z M2387.847,7824.077c-3.252,0.529-6.504,1.055-9.807,1.556
				c15.511,2.326,30.77,4.542,45.777,6.655c3.823-0.229,7.652-0.456,11.414-0.716l-19.715-3.476L2387.847,7824.077z
				 M2438.09,7814.491c-3.706,0.826-7.422,1.651-11.212,2.432c20.101,3.549,39.821,6.921,59.155,10.126
				c5.721-0.629,11.346-1.313,16.905-2.021C2481.063,7821.382,2459.451,7817.872,2438.09,7814.491z M2484.948,7802.442
				c-4.752,1.405-9.555,2.782-14.475,4.109c17.459,2.833,35.058,5.737,52.847,8.749l0.157,0.025l19.586,3.731
				c6.023-1.027,11.973-2.093,17.778-3.224C2535.18,7811.172,2509.89,7806.719,2484.948,7802.442z M2527.847,7787.861
				c-5.329,2.065-10.775,4.081-16.351,6.031c26.952,4.705,54.291,9.617,82.066,14.772c6.392-1.562,12.673-3.174,18.769-4.867
				C2583.711,7798.225,2555.566,7792.921,2527.847,7787.861z M2566.616,7770.727c-5.441,2.737-11.055,5.396-16.832,7.982
				c29.175,5.407,58.83,11.094,88.984,17.053c6.577-2.194,12.942-4.483,19.133-6.849
				C2626.93,7782.535,2596.512,7776.479,2566.616,7770.727z M1082.669,4954.975c-2.412-6.916-4.819-13.818-7.142-20.72
				c-15.287-16.703-30.468-33.406-45.547-50.109c2.676,6.729,5.396,13.454,8.161,20.199
				C1052.868,4921.218,1067.712,4938.098,1082.669,4954.975z M1101.219,5005.985c-2.357-6.199-4.663-12.398-6.947-18.586
				c-13.535-15.187-26.975-30.37-40.33-45.545c2.541,5.9,5.055,11.808,7.663,17.722
				C1074.704,4975.039,1087.919,4990.511,1101.219,5005.985z M1121.326,5057.264c-2.105-5.172-4.142-10.338-6.191-15.5
				c-11.52-13.297-22.978-26.6-34.358-39.891l6.762,14.498C1098.723,5029.996,1109.979,5043.631,1121.326,5057.264z
				 M1143.033,5108.751l-4.836-11.229c-9.13-10.868-18.22-21.735-27.26-32.6l4.775,9.572
				C1124.757,5085.907,1133.864,5097.332,1143.033,5108.751z M1165.765,5159.607l-2.194-4.772
				c-6.146-7.562-12.276-15.13-18.371-22.692l1.069,2.035C1152.728,5142.649,1159.238,5151.127,1165.765,5159.607z
				 M2276.315,7808.956l-6.135,1.262c13.759,1.623,27.618,3.3,41.59,5.029l0.252,0.053l20.901,3.358l9.029-1.013
				C2319.797,7814.606,2297.927,7811.712,2276.315,7808.956z M2324.924,7797.517c-3.946,1.058-7.92,2.107-11.962,3.121
				c24.842,3.303,50.037,6.773,75.584,10.428c4.4-0.719,8.732-1.48,13.031-2.253
				C2375.638,7804.841,2350.097,7801.085,2324.924,7797.517z M2370.069,7783.747c-4.931,1.708-9.986,3.364-15.108,4.99
				c27.338,3.991,55.102,8.203,83.314,12.653c5.687-1.287,11.274-2.625,16.754-4.002
				C2426.229,7792.577,2397.911,7788.035,2370.069,7783.747z M2411.239,7767.601c-5.334,2.368-10.786,4.668-16.39,6.91
				c29.393,4.626,59.278,9.519,89.707,14.719c6.258-1.897,12.359-3.859,18.321-5.886
				C2471.754,7777.774,2441.219,7772.535,2411.239,7767.601z M2448.345,7749.081c-5.351,3.006-10.837,5.95-16.507,8.811
				c31.078,5.2,62.732,10.73,95.007,16.605c6.336-2.527,12.522-5.133,18.478-7.831
				C2512.331,7760.419,2480.016,7754.564,2448.345,7749.081z M1622.291,2578.754l-1.299,8.464l1.511-1.69l2.144-8.8
				L1622.291,2578.754z M1155.353,5036.15c-2.317-7.618-4.562-15.223-6.756-22.813c-17.151-18.388-34.207-36.779-51.128-55.164
				c2.67,7.545,5.418,15.105,8.189,22.667C1122.093,4999.279,1138.667,5017.712,1155.353,5036.15z M1171.659,5086.965
				c-2.412-7.193-4.814-14.388-7.131-21.57c-15.556-17.092-31.01-34.19-46.353-51.282c2.709,7.017,5.463,14.05,8.256,21.081
				C1141.399,5052.448,1156.478,5069.705,1171.659,5086.965z M1189.677,5138.396c-2.379-6.532-4.758-13.065-7.064-19.583
				c-13.815-15.598-27.54-31.201-41.164-46.807c2.608,6.258,5.245,12.525,7.926,18.797
				C1162.714,5106.666,1176.154,5122.529,1189.677,5138.396z M1209.336,5190.305c-2.183-5.567-4.366-11.134-6.499-16.689
				c-11.816-13.759-23.566-27.518-35.242-41.276c2.306,5.139,4.59,10.28,6.947,15.433
				C1186.056,5161.941,1197.665,5176.129,1209.336,5190.305z M1230.456,5242.373l-5.2-12.497
				c-9.471-11.385-18.892-22.768-28.251-34.145c1.685,3.541,3.336,7.07,5.055,10.613
				C1211.463,5218.354,1220.934,5230.363,1230.456,5242.373z M1252.633,5293.888l-2.905-6.622
				c-6.611-8.231-13.193-16.462-19.743-24.699l2.054,4.078C1238.863,5275.723,1245.732,5284.808,1252.633,5293.888z
				 M2104.632,7805.753l-0.812,0.148l25.57,2.211L2104.632,7805.753z M2156.51,7794.774c-2.888,0.694-5.754,1.396-8.687,2.074
				c25.413,2.542,51.195,5.279,77.386,8.204l8.749-1.375C2207.723,7800.5,2181.918,7797.536,2156.51,7794.774z M2204.722,7781.647
				c-4.394,1.344-8.827,2.67-13.333,3.963c27.825,3.171,56.138,6.597,84.926,10.263c4.864-1.013,9.661-2.049,14.391-3.115
				C2261.526,7788.782,2232.873,7785.079,2204.722,7781.647z M2249.139,7766.352c-5.138,1.993-10.411,3.918-15.751,5.819
				c29.802,3.77,60.151,7.826,91.083,12.191c5.816-1.592,11.503-3.244,17.101-4.934
				C2310.141,7774.737,2279.338,7770.385,2249.139,7766.352z M2289.453,7748.871c-5.396,2.611-10.904,5.161-16.563,7.655
				c31.38,4.304,63.376,8.95,96.043,13.955c6.225-2.197,12.32-4.453,18.237-6.784
				C2353.881,7758.354,2321.32,7753.428,2289.453,7748.871z M2325.781,7729.218c-5.334,3.215-10.764,6.387-16.412,9.468
				c32.673,4.771,66.068,9.938,100.202,15.519c6.18-2.813,12.141-5.718,17.951-8.696
				C2392.812,7739.621,2358.907,7734.194,2325.781,7729.218z M1599.772,2629.675l-0.817,8.483l0.549-0.761l1.59-9.127
				L1599.772,2629.675z M1602.85,2595.348l-1.131,13.177l3.314-3.605l2.121-13.207L1602.85,2595.348z M1230.775,5118.617
				c-2.121-8.189-4.165-16.365-6.146-24.526c-18.875-19.863-37.638-39.737-56.272-59.614c2.496,8.145,5.077,16.303,7.697,24.473
				C1194.161,5078.843,1212.409,5098.731,1230.775,5118.617z M1244.573,5168.967c-2.289-7.918-4.517-15.805-6.684-23.695
				c-17.431-18.805-34.772-37.618-51.984-56.435c2.653,7.825,5.391,15.67,8.156,23.516
				C1210.775,5131.225,1227.618,5150.092,1244.573,5168.967z M1260.162,5220.12c-2.385-7.473-4.713-14.94-7.003-22.396
				c-15.869-17.585-31.654-35.172-47.333-52.766c2.715,7.33,5.514,14.683,8.323,22.032
				C1229.375,5184.699,1244.718,5202.412,1260.162,5220.12z M1277.475,5272.004c-2.379-6.829-4.679-13.652-6.98-20.473
				c-14.156-16.135-28.24-32.287-42.222-48.43c2.664,6.622,5.407,13.263,8.133,19.899
				C1249.997,5239.339,1263.688,5255.673,1277.475,5272.004z M1296.451,5324.523c-2.222-5.925-4.389-11.853-6.549-17.775
				c-12.175-14.321-24.288-28.654-36.328-42.984c2.412,5.589,4.87,11.184,7.327,16.779
				C1272.673,5295.206,1284.528,5309.863,1296.451,5324.523z M1316.893,5377.277c-1.886-4.719-3.728-9.429-5.586-14.148
				c-9.885-12.038-19.726-24.075-29.499-36.116l5.844,12.623C1297.335,5352.183,1307.092,5364.728,1316.893,5377.277z
				 M1338.259,5429.226l-3.482-8.332c-7.081-8.962-14.134-17.926-21.159-26.888l2.844,5.85
				C1323.689,5409.643,1330.954,5419.438,1338.259,5429.226z M1975.262,7795.102l-4.668,0.949
				c25.928,1.629,52.281,3.462,79.071,5.505l3.135-0.425C2026.507,7798.902,2000.669,7796.901,1975.262,7795.102z
				 M2028.679,7782.322c-3.666,0.982-7.394,1.942-11.128,2.899c28.469,2.222,57.453,4.705,86.997,7.453
				c3.79-0.714,7.529-1.45,11.257-2.188C2086.194,7787.478,2057.159,7784.754,2028.679,7782.322z M2077.473,7767.62
				c-4.814,1.621-9.701,3.199-14.655,4.758c30.406,2.782,61.422,5.875,93.076,9.3c5.295-1.287,10.496-2.625,15.634-3.982
				C2139.494,7773.976,2108.153,7770.623,2077.473,7767.62z M2122.03,7750.959c-5.351,2.219-10.786,4.4-16.333,6.53
				c31.906,3.283,64.512,6.941,97.84,10.982c5.984-1.87,11.867-3.801,17.632-5.777
				C2187.336,7758.359,2154.305,7754.455,2122.03,7750.959z M2162.41,7732.355c-5.48,2.802-11.078,5.559-16.826,8.242
				c33.121,3.728,67.031,7.884,101.736,12.477c6.241-2.457,12.359-4.965,18.293-7.557
				C2230.337,7740.643,2195.94,7736.271,2162.41,7732.355z M2198.739,7711.824c-5.385,3.375-10.893,6.669-16.574,9.905
				c34.117,4.103,69.102,8.679,104.965,13.759c6.124-3.04,12.057-6.166,17.823-9.362
				C2268.585,7720.808,2233.186,7716.05,2198.739,7711.824z M1580.628,2684.71l-0.213,4.985l0.649-5.55L1580.628,2684.71z
				 M1582.055,2648.329l-0.498,13.569l2.256-3.028l1.427-13.848L1582.055,2648.329z M1583.13,2611.743l-0.465,17.185l4.612-4.875
				l1.539-16.994L1583.13,2611.743z M1708.258,2450.757c-4.472,4.475-8.889,8.959-13.261,13.448l4.747-2.704
				c4.808-4.456,9.667-8.903,14.587-13.331L1708.258,2450.757z M1744.754,2415.529c-3.498,3.261-6.969,6.53-10.411,9.804
				l12.606-5.614l9.314-7.837L1744.754,2415.529z M1308.872,5202.387c-1.819-8.64-3.571-17.263-5.239-25.875
				c-20.437-21.142-40.756-42.298-60.952-63.462c2.211,8.604,4.495,17.212,6.851,25.844
				C1269.18,5160.069,1288.967,5181.231,1308.872,5202.387z M1320.19,5252.286c-2.054-8.48-4.047-16.958-5.961-25.413
				c-19.127-20.258-38.131-40.526-57.028-60.812c2.452,8.416,4.954,16.852,7.534,25.295
				C1283.09,5211.673,1301.584,5231.984,1320.19,5252.286z M1333.238,5303.04c-2.233-8.209-4.4-16.412-6.516-24.596
				c-17.694-19.236-35.281-38.48-52.763-57.739c2.603,8.105,5.267,16.202,7.993,24.327
				C1298.925,5264.375,1316.026,5283.708,1333.238,5303.04z M1348.016,5354.666c-2.34-7.797-4.646-15.584-6.879-23.37
				c-16.143-18.041-32.175-36.09-48.111-54.145c2.693,7.629,5.424,15.267,8.212,22.908
				C1316.714,5318.265,1332.315,5336.468,1348.016,5354.666z M1364.445,5407.076c-2.357-7.221-4.685-14.428-6.952-21.629
				c-14.414-16.611-28.732-33.224-42.973-49.849c2.664,6.975,5.368,13.955,8.111,20.935
				C1336.474,5373.384,1350.417,5390.236,1364.445,5407.076z M1382.514,5460.194c-2.273-6.459-4.506-12.914-6.717-19.359
				c-12.516-14.912-24.954-29.833-37.319-44.761c2.519,6.135,5.088,12.275,7.657,18.419
				C1358.181,5429.727,1370.305,5444.96,1382.514,5460.194z M1401.875,5513.292l-5.877-15.774
				c-10.249-12.692-20.465-25.391-30.613-38.097c2.054,4.719,4.125,9.438,6.224,14.162
				C1381.635,5486.822,1391.721,5500.06,1401.875,5513.292z M1422.217,5565.871l-4.109-10.328
				c-7.557-9.748-15.074-19.502-22.569-29.258l3.672,7.884C1406.84,5544.734,1414.509,5555.308,1422.217,5565.871z
				 M1442.967,5616.811l-0.739-1.78l-6.941-9.398L1442.967,5616.811z M1835.188,7787.158l-7.848,1.747
				c29.035,1.047,58.657,2.374,88.884,3.985l7.182-1.201C1893.364,7789.868,1863.96,7788.359,1835.188,7787.158z M1891.807,7772.574
				c-4.299,1.24-8.682,2.452-13.076,3.644c31.178,1.587,63.051,3.513,95.64,5.799c4.601-0.979,9.186-1.976,13.686-3.003
				C1955.2,7776.473,1923.126,7774.329,1891.807,7772.574z M1942.438,7756.372c-5.167,1.831-10.411,3.627-15.729,5.394
				c32.712,2.08,66.214,4.57,100.543,7.476c5.704-1.556,11.335-3.146,16.865-4.772
				C2009.334,7761.306,1975.446,7758.605,1942.438,7756.372z M1988.136,7738.493c-5.547,2.39-11.229,4.735-16.983,7.036
				c33.932,2.511,68.755,5.491,104.495,8.956c6.213-2.11,12.332-4.263,18.299-6.485
				C2057.68,7744.295,2022.421,7741.13,1988.136,7738.493z M2029.317,7718.969c-5.586,2.917-11.346,5.766-17.19,8.567
				c34.884,2.866,70.742,6.269,107.596,10.215c6.275-2.659,12.393-5.382,18.377-8.161
				C2100.748,7725.442,2064.498,7721.913,2029.317,7718.969z M2066.289,7697.821c-5.424,3.412-11.05,6.745-16.759,10.034
				c35.595,3.14,72.248,6.871,109.998,11.209c6.124-3.19,12.041-6.465,17.823-9.804
				C2139.147,7704.773,2102.136,7700.967,2066.289,7697.821z M1564.647,2705.444l0.129,13.613l1.377-2.281l0.7-14.156
				L1564.647,2705.444z M1564.054,2666.807l0.308,17.806l3.51-4.576l0.722-17.84L1564.054,2666.807z M1563.152,2627.946
				l0.526,20.739l5.609-5.777l0.616-20.395L1563.152,2627.946z M1570.373,2603.767l-1.769,3.076l1.73-1.402L1570.373,2603.767z
				 M1630.11,2514.295c-5.469,7.201-10.798,14.397-15.97,21.615c6.219-7.797,12.617-15.558,19.194-23.297L1630.11,2514.295z
				 M1667.692,2467.598c-6.101,7.182-12.052,14.369-17.873,21.57l7.881-4.257c6.499-7.142,13.149-14.265,19.922-21.36
				L1667.692,2467.598z M1702.151,2428.625c-5.256,5.723-10.434,11.45-15.528,17.182l14.201-5.959
				c5.251-5.234,10.579-10.445,15.97-15.659L1702.151,2428.625z M1389.785,5287.621c-1.461-9.001-2.838-17.988-4.137-26.958
				c-21.903-22.298-43.7-44.624-65.368-66.961c1.864,8.976,3.812,17.971,5.833,26.978
				C1347.21,5243.011,1368.441,5265.323,1389.785,5287.621z M1398.545,5337.003c-1.724-8.931-3.359-17.845-4.926-26.745
				c-20.683-21.551-41.271-43.116-61.719-64.705c2.127,8.883,4.333,17.789,6.622,26.697
				C1358.399,5293.848,1378.422,5315.438,1398.545,5337.003z M1408.99,5387.286c-1.948-8.774-3.834-17.54-5.648-26.289
				c-19.373-20.691-38.64-41.411-57.795-62.144c2.362,8.701,4.792,17.411,7.282,26.132
				C1371.436,5345.771,1390.165,5366.536,1408.99,5387.286z M1421.131,5438.551c-2.133-8.525-4.209-17.033-6.224-25.533
				c-17.979-19.737-35.858-39.491-53.625-59.261c2.536,8.399,5.127,16.81,7.781,25.231
				C1386.303,5398.856,1403.661,5418.71,1421.131,5438.551z M1434.851,5490.684c-2.256-8.167-4.456-16.314-6.611-24.458
				c-16.434-18.595-32.779-37.202-49.029-55.813c2.648,7.988,5.334,15.987,8.077,23.988
				C1403.045,5453.175,1418.898,5471.938,1434.851,5490.684z M1450.171,5543.657c-2.323-7.7-4.601-15.402-6.84-23.093
				c-14.733-17.224-29.382-34.459-43.952-51.705c2.681,7.459,5.396,14.926,8.145,22.401
				C1421.646,5508.736,1435.864,5526.201,1450.171,5543.657z M1466.869,5596.99c-2.25-6.936-4.467-13.862-6.656-20.792
				c-12.852-15.572-25.626-31.162-38.332-46.759c2.525,6.575,5.088,13.166,7.674,19.749
				C1441.909,5565.129,1454.358,5581.065,1466.869,5596.99z M1484.798,5650.508l-5.961-17.417
				c-10.652-13.459-21.248-26.933-31.805-40.412l6.583,15.936C1463.947,5622.591,1474.347,5636.557,1484.798,5650.508z
				 M1503.773,5703.842l-4.601-12.628c-8.044-10.646-16.065-21.304-24.047-31.962l4.461,10.269
				C1487.608,5680.965,1495.674,5692.403,1503.773,5703.842z M1523.007,5755.278l-1.73-4.557l-14.296-20l0.487,1.066
				L1523.007,5755.278z M1493.726,7803.067l0.879-0.109c-6.499,0.33-12.953,0.677-19.368,1.039L1493.726,7803.067z
				 M1605.884,7799.291l-0.84,0.157c20-0.364,40.314-0.585,60.957-0.658C1645.627,7798.804,1625.582,7798.966,1605.884,7799.291z
				 M1680.746,7783.601c-3.359,0.809-6.796,1.573-10.199,2.359c32.22,0.014,65.273,0.417,99.178,1.223l10.703-1.962
				C1746.271,7784.234,1713.049,7783.693,1680.746,7783.601z M1742.912,7767.01c-4.741,1.411-9.589,2.782-14.425,4.148
				c34.106,0.526,69.169,1.511,105.212,2.989c5.295-1.223,10.535-2.463,15.701-3.736
				C1812.826,7768.734,1777.337,7767.601,1742.912,7767.01z M1796.901,7749.293c-5.379,1.942-10.842,3.86-16.373,5.738
				c35.309,0.971,71.677,2.471,109.136,4.537c6.051-1.76,12.018-3.565,17.884-5.407
				C1869.473,7751.914,1832.597,7750.296,1796.901,7749.293z M1844.827,7730.301c-5.642,2.446-11.397,4.836-17.218,7.201
				c36.233,1.327,73.619,3.263,112.209,5.833c6.37-2.281,12.622-4.624,18.757-7.008
				C1919.348,7733.609,1881.441,7731.617,1844.827,7730.301z M1887.649,7710.063c-5.598,2.88-11.302,5.715-17.106,8.503
				c36.899,1.59,75.058,3.859,114.504,6.837c6.342-2.771,12.555-5.603,18.617-8.494
				C1963.568,7713.841,1924.906,7711.572,1887.649,7710.063z M1926.02,7688.61c-5.379,3.277-10.848,6.513-16.463,9.684
				c37.347,1.749,76.048,4.251,116.133,7.526c6.129-3.241,12.124-6.538,17.94-9.916
				C2002.891,7692.602,1963.703,7690.184,1926.02,7688.61z M1550.737,2766.569l0.705,13.521l0.571-1.195l0.011-14.364
				L1550.737,2766.569z M1548.42,2725.934l1.058,18.158l2.496-4.013l-0.112-18.447L1548.42,2725.934z M1545.828,2685.06l1.394,21.54
				l4.433-5.623l-0.325-21.383L1545.828,2685.06z M1542.973,2643.946l1.713,23.958l6.314-6.331l-0.526-23.532L1542.973,2643.946z
				 M1549.925,2617.417l-3.196,7.028l3.314-2.634L1549.925,2617.417z M1564.865,2586.977l-2.11,4.042l2.552-4.322L1564.865,2586.977
				z M1596.973,2531.284c-6.739,10.711-13.165,21.422-19.255,32.125l3.448-2.228c7.271-11.192,14.923-22.357,22.917-33.49
				L1596.973,2531.284z M1629.635,2482.75c-6.376,8.917-12.555,17.831-18.517,26.748l10.467-5.413
				c6.728-8.799,13.675-17.588,20.817-26.356L1629.635,2482.75z M1661.188,2440.665c-5.889,7.506-11.637,15.013-17.246,22.513
				l15.925-6.387c6.012-7.039,12.152-14.072,18.405-21.089L1661.188,2440.665z M1473.479,5374.313
				c-1.041-9.306-2.026-18.587-2.916-27.868c-23.269-23.339-46.437-46.703-69.483-70.098c1.461,9.272,3.017,18.578,4.635,27.884
				C1428.184,5327.616,1450.781,5350.983,1473.479,5374.313z M1479.715,5423.219c-1.321-9.286-2.552-18.547-3.717-27.809
				c-22.15-22.715-44.193-45.469-66.124-68.234c1.735,9.247,3.56,18.511,5.469,27.784
				C1436.676,5377.739,1458.137,5400.493,1479.715,5423.219z M1487.552,5473.077c-1.578-9.225-3.079-18.452-4.517-27.655
				c-20.946-22.021-41.803-44.064-62.536-66.135c2.01,9.164,4.092,18.34,6.247,27.529
				C1446.902,5428.926,1467.171,5451.011,1487.552,5473.077z M1496.9,5523.833c-1.797-9.079-3.532-18.15-5.195-27.212
				c-19.647-21.204-39.188-42.438-58.629-63.697c2.245,8.995,4.545,17.99,6.913,27.005
				C1458.847,5481.252,1477.823,5502.554,1496.9,5523.833z M1507.748,5575.496c-1.97-8.858-3.885-17.703-5.737-26.549
				c-18.237-20.283-36.395-40.58-54.448-60.91c2.413,8.729,4.881,17.47,7.411,26.219
				C1472.455,5534.687,1490.054,5555.106,1507.748,5575.496z M1520.09,5628.096c-2.121-8.601-4.181-17.198-6.202-25.785
				c-16.709-19.183-33.328-38.391-49.863-57.616c2.569,8.438,5.167,16.874,7.825,25.323
				C1487.837,5589.397,1503.919,5608.753,1520.09,5628.096z M1533.743,5681.206c-2.177-8.13-4.333-16.261-6.426-24.38
				c-15.018-17.878-29.964-35.777-44.836-53.694c2.592,7.89,5.228,15.785,7.898,23.683
				C1504.753,5644.964,1519.206,5663.092,1533.743,5681.206z M1548.655,5734.816c-2.149-7.437-4.254-14.87-6.331-22.298
				c-13.137-16.286-26.219-32.592-39.239-48.914c2.502,7.104,5.038,14.209,7.601,21.318
				C1523.275,5701.567,1535.926,5718.197,1548.655,5734.816z M1564.736,5788.808l-5.905-19.44
				c-11.005-14.274-21.959-28.564-32.869-42.863c2.25,6.006,4.517,11.996,6.807,18.004
				C1543.365,5759.286,1554.028,5774.058,1564.736,5788.808z M1581.568,5842.228l-4.769-14.875
				c-8.503-11.615-16.972-23.241-25.413-34.876l5.06,12.721C1564.781,5817.551,1573.161,5829.894,1581.568,5842.228z
				 M1598.73,5894.162l-2.586-7.708l-16.233-23.636l1.858,4.473L1598.73,5894.162z M1495.623,7775.627
				c5.055-1.184,9.992-2.413,14.957-3.627c-51.089,3.381-99.105,8.301-144.154,14.697
				C1407.367,7781.972,1450.417,7778.272,1495.623,7775.627z M1381.45,7798.121l5.491-0.901c-8.094,0.856-16.104,1.746-24.036,2.675
				C1369.04,7799.286,1375.22,7798.692,1381.45,7798.121z M1498.892,7788.236l-9.645,2.191c36.748-1.912,74.795-3.224,114.173-3.907
				c4.478-0.817,8.934-1.651,13.345-2.502C1575.92,7784.676,1536.642,7786.092,1498.892,7788.236z M1573.53,7768.681
				c-4.596,1.346-9.286,2.656-13.96,3.963c38.164-1.346,77.756-1.993,118.819-1.923c5.737-1.377,11.43-2.771,17.039-4.198
				C1653.122,7766.4,1612.5,7767.127,1573.53,7768.681z M1634.174,7749.162c-5.127,1.813-10.339,3.597-15.584,5.357
				c38.92-0.91,79.379-1.039,121.406-0.37c6.224-1.867,12.371-3.77,18.427-5.707C1715.221,7747.751,1673.816,7748,1634.174,7749.162
				z M1686.243,7729.095c-5.306,2.217-10.674,4.414-16.121,6.577c39.496-0.613,80.633-0.372,123.454,0.759
				c6.381-2.326,12.651-4.697,18.819-7.118C1768.426,7728.21,1726.4,7728.152,1686.243,7729.095z M1732.104,7708.395
				c-5.2,2.542-10.49,5.049-15.841,7.518c39.86-0.454,81.478,0.045,124.898,1.517c6.247-2.732,12.343-5.528,18.349-8.357
				C1814.987,7707.718,1772.54,7707.502,1732.104,7708.395z M1772.49,7687.077c-4.92,2.796-9.93,5.55-15.007,8.279
				c40.129-0.439,82.127,0.151,126.063,1.828c5.967-3.106,11.788-6.283,17.498-9.502
				C1855.978,7686.234,1813.156,7686.044,1772.49,7687.077z M1540.314,2831.929l1.12,12.004l-0.549-13.121L1540.314,2831.929z
				 M1536.228,2789.192l1.791,18.352l1.629-3.274l-0.94-18.9L1536.228,2789.192z M1531.901,2746.284l2.273,22.116l3.375-5.304
				l-1.254-22.175L1531.901,2746.284z M1527.334,2703.141l2.676,24.946l5.144-6.365l-1.539-24.671L1527.334,2703.141z
				 M1522.531,2659.807l3.023,26.989l6.919-6.784l-1.83-26.457L1522.531,2659.807z M1539.324,2602.91
				c-5.256,12.888-10.02,25.732-14.251,38.542l4.456-3.465l-0.291-3.952l-0.112-1.553l0.593-1.416
				c4.305-10.277,8.956-20.551,13.921-30.82L1539.324,2602.91z M1564.977,2547.181c-5.973,11.699-11.587,23.364-16.793,34.999
				l6.734-4.232c6.292-11.906,12.998-23.807,20.101-35.707L1564.977,2547.181z M1592.825,2496.898
				c-6.096,10.255-11.951,20.484-17.52,30.7l12.617-6.303c6.381-10.042,13.02-20.076,19.938-30.118L1592.825,2496.898z
				 M1621.054,2452.039c-5.933,8.95-11.693,17.887-17.252,26.81l17.526-6.765c6.101-8.475,12.359-16.938,18.813-25.407
				L1621.054,2452.039z M1559.939,5462.489c-0.61-9.569-1.147-19.126-1.601-28.667c-24.529-24.257-48.968-48.551-73.294-72.88
				c1.008,9.519,2.105,19.063,3.291,28.615C1512.086,5413.908,1535.959,5438.221,1559.939,5462.489z M1563.734,5511.037
				c-0.879-9.6-1.679-19.186-2.412-28.76c-23.504-23.759-46.919-47.56-70.221-71.397c1.293,9.533,2.659,19.082,4.12,28.648
				C1517.952,5463.398,1540.796,5487.236,1563.734,5511.037z M1568.918,5560.455c-1.131-9.591-2.177-19.177-3.168-28.749
				c-22.407-23.205-44.724-46.448-66.936-69.723c1.59,9.547,3.252,19.102,4.987,28.662
				C1525.397,5513.95,1547.11,5537.222,1568.918,5560.455z M1575.467,5610.727c-1.36-9.513-2.636-19.023-3.862-28.517
				c-21.204-22.544-42.329-45.13-63.342-67.753c1.83,9.448,3.745,18.917,5.715,28.394
				C1534.364,5565.515,1554.874,5588.138,1575.467,5610.727z M1583.343,5661.869c-1.551-9.398-3.039-18.788-4.478-28.172
				c-19.894-21.772-39.709-43.569-59.429-65.416c2.054,9.309,4.159,18.618,6.325,27.938
				C1544.854,5618.138,1564.054,5640.019,1583.343,5661.869z M1592.517,5713.901c-1.73-9.253-3.403-18.508-5.027-27.761
				c-18.483-20.876-36.888-41.797-55.209-62.746c2.245,9.144,4.534,18.301,6.885,27.458
				C1556.861,5671.899,1574.644,5692.916,1592.517,5713.901z M1602.873,5766.526c-1.853-8.976-3.661-17.951-5.424-26.921
				c-16.938-19.827-33.809-39.681-50.596-59.578c2.373,8.827,4.797,17.652,7.26,26.485
				C1570.284,5726.543,1586.55,5746.549,1602.873,5766.526z M1614.359,5819.754c-1.926-8.559-3.818-17.118-5.67-25.676
				c-15.236-18.576-30.423-37.17-45.531-55.796c2.424,8.346,4.892,16.689,7.394,25.035
				C1585.078,5782.158,1599.682,5800.965,1614.359,5819.754z M1626.875,5873.51c-1.931-7.993-3.834-15.989-5.698-23.982
				c-13.361-17.034-26.683-34.095-39.939-51.182c2.385,7.683,4.808,15.365,7.26,23.051
				C1601.227,5838.791,1614.023,5856.163,1626.875,5873.51z M1640.236,5927.303c-1.819-7.109-3.616-14.227-5.39-21.344
				c-11.262-15.116-22.48-30.247-33.664-45.402l6.639,19.964C1618.579,5896.132,1629.394,5911.725,1640.236,5927.303z
				 M1654.236,5980.726l-4.629-17.377c-8.844-12.614-17.666-25.245-26.46-37.89l5.374,15.402
				C1637.063,5954.165,1645.632,5967.454,1654.236,5980.726z M1668.437,6032.635l-3.09-11.105l-17.856-27.422l2.95,8.136
				C1656.419,6012.383,1662.425,6022.509,1668.437,6032.635z M1682.056,6080.74l-0.017-0.045l-0.101-0.168L1682.056,6080.74z
				 M1077.234,7847.288c-91.632,24.515-178.159,49.309-259.637,74.411c59.396-16.927,121.646-33.474,186.891-49.623
				c11.52-3.94,23.303-7.747,35.377-11.433C1051.972,7856.022,1064.421,7851.57,1077.234,7847.288z M1425.486,7765.692l-4.327,1.396
				c46.661-5.127,96.183-8.813,148.66-10.991c5.687-1.668,11.352-3.348,16.91-5.069
				C1529.063,7753.895,1475.371,7758.815,1425.486,7765.692z M1490.171,7743.43l-7.428,2.737
				c46.185-4.725,95.282-7.929,147.367-9.561c5.794-2.054,11.52-4.14,17.162-6.258
				C1591.056,7732.661,1538.747,7737.049,1490.171,7743.43z M1542.419,7722.439c-2.463,1.063-5.016,2.099-7.512,3.157
				c45.928-4.666,94.873-7.699,146.964-9.045c5.558-2.345,11.044-4.727,16.446-7.137
				C1642.352,7711.566,1590.44,7715.94,1542.419,7722.439z M1585.934,7702.369c-1.998,0.988-4.097,1.945-6.118,2.925
				c45.844-4.94,94.918-8.097,147.333-9.398c5.228-2.575,10.378-5.186,15.438-7.822
				C1686.036,7690.404,1633.883,7695.213,1585.934,7702.369z M1527.63,2856.575l2.441,18.301l0.907-2.315l-1.69-19.16
				L1527.63,2856.575z M1521.506,2811.588l3.09,22.578l2.452-4.789l-2.161-22.877L1521.506,2811.588z M1515.176,2766.413
				l3.627,25.71l4.069-6.213l-2.575-25.615L1515.176,2766.413z M1508.643,2721.042l4.069,28.094l5.732-6.921
				c-0.957-9.202-1.942-18.45-2.939-27.7L1508.643,2721.042z M1501.898,2675.5l4.439,29.832l7.422-7.112l-3.258-29.225
				L1501.898,2675.5z M1513.844,2618.466c-3.997,13.269-7.49,26.477-10.4,39.597l5.374-4.094l-0.196-1.721l-0.146-1.293l0.403-1.318
				c3.594-11.805,7.646-23.639,12.113-35.5L1513.844,2618.466z M1533.62,2562.342c-5.032,12.513-9.645,24.965-13.804,37.358
				l9.113-5.575c5.195-12.524,10.854-25.08,16.955-37.663L1533.62,2562.342z M1556.721,2510.363
				c-5.519,11.36-10.691,22.681-15.561,33.952l14.302-6.941c5.743-11.069,11.805-22.161,18.164-33.269L1556.721,2510.363z
				 M1581.4,2462.927c-5.648,10.196-11.05,20.37-16.222,30.493l18.847-7.053c5.827-9.681,11.901-19.39,18.159-29.107
				L1581.4,2462.927z M1648.834,5504.602c0.341-44.94,2.362-89.65,6.381-134.025h-0.017c24.87-349.286,31.201-729.078,4.696-1166.83
				c-13.048-215.375-34.05-444.802-64.702-691.524c15.091,212.716,22.373,412.009,24.176,600.457
				c3.991,418.561-19.088,783.329-43.969,1122.894l-0.022,0.157c-6.045,63.25-7.165,127.516-4.316,192.458
				C1596.889,5453.715,1622.828,5479.184,1648.834,5504.602z M1649.092,5552.106c-0.179-9.821-0.28-19.636-0.308-29.435
				c-25.676-25.063-51.279-50.174-76.771-75.338c0.537,9.743,1.176,19.497,1.886,29.264
				C1598.865,5501.815,1623.936,5526.987,1649.092,5552.106z M1650.536,5600.433c-0.42-9.877-0.772-19.757-1.036-29.622
				c-24.764-24.697-49.438-49.446-74.028-74.247c0.823,9.807,1.741,19.634,2.732,29.466
				C1602.218,5550.883,1626.338,5575.686,1650.536,5600.433z M1653.161,5649.521c-0.638-9.905-1.209-19.81-1.718-29.701
				c-23.762-24.268-47.434-48.582-71.027-72.953c1.097,9.84,2.278,19.692,3.526,29.558
				C1606.925,5600.835,1630.004,5625.208,1653.161,5649.521z M1656.911,5699.392c-0.851-9.888-1.635-19.768-2.357-29.636
				c-22.648-23.742-45.228-47.538-67.714-71.375c1.343,9.813,2.771,19.633,4.249,29.46
				C1612.943,5651.737,1634.891,5675.588,1656.911,5699.392z M1661.742,5750c-1.03-9.827-2.015-19.647-2.939-29.468
				c-21.439-23.124-42.799-46.3-64.086-69.516c1.573,9.756,3.213,19.513,4.915,29.278
				C1620.247,5703.576,1640.964,5726.809,1661.742,5750z M1667.62,5801.399c-1.203-9.759-2.362-19.516-3.459-29.27
				c-20.118-22.396-40.168-44.853-60.151-67.347c1.791,9.687,3.638,19.376,5.525,29.074
				C1628.817,5756.415,1648.179,5778.934,1667.62,5801.399z M1674.449,5853.353c-1.338-9.597-2.636-19.203-3.89-28.811
				c-18.679-21.537-37.297-43.126-55.836-64.75c1.942,9.51,3.952,19.018,5.995,28.531
				C1638.557,5810.045,1656.48,5831.718,1674.449,5853.353z M1682.156,5905.85c-1.444-9.354-2.844-18.705-4.215-28.058
				c-17.095-20.512-34.134-41.069-51.111-61.666c2.066,9.211,4.176,18.427,6.32,27.635
				C1649.422,5864.5,1665.761,5885.195,1682.156,5905.85z M1690.676,5958.875c-1.5-9.006-2.984-18.016-4.422-27.025
				c-15.36-19.289-30.686-38.623-45.95-57.991c2.133,8.819,4.304,17.646,6.499,26.465
				C1661.367,5919.88,1676.005,5939.396,1690.676,5958.875z M1699.878,6012.131c-1.511-8.489-3-16.975-4.467-25.478
				c-13.473-17.814-26.913-35.667-40.308-53.555c2.116,8.237,4.276,16.457,6.448,24.686
				C1674.281,5975.937,1687.066,5994.051,1699.878,6012.131z M1709.629,6065.383l-4.316-23.208
				c-11.357-15.967-22.698-31.962-34.011-47.985l6.029,22.001C1688.068,6032.621,1698.837,6049.019,1709.629,6065.383z
				 M1719.722,6118.132l-3.84-19.81c-9.018-13.61-18.024-27.244-27.003-40.901l5.15,18.077
				C1702.571,6089.73,1711.135,6103.951,1719.722,6118.132z M1729.887,6169.535l-2.872-14.383l-18.897-31.17l3.448,11.735
				L1729.887,6169.535z M1739.576,6217.427l-0.974-4.803l-8.99-16.462l0.185,0.602L1739.576,6217.427z M1522.643,2928.23l3,17.999
				l0.386-1.265l-2.418-19.077L1522.643,2928.23z M1514.661,2881.09l3.879,22.799l1.69-4.179l-3.062-23.308L1514.661,2881.09z
				 M1506.516,2833.833l4.562,26.367l3.135-5.964l-3.588-26.454L1506.516,2833.833z M1498.193,2786.402l5.116,29.021l4.657-6.949
				l-4.025-28.791L1498.193,2786.402z M1489.707,2738.817l5.553,31.047l6.247-7.364l-4.405-30.588L1489.707,2738.817z
				 M1481.036,2691.072l5.922,32.569l7.865-7.378l-4.736-31.912L1481.036,2691.072z M1488.223,2633.775
				c-2.743,13.667-4.948,27.224-6.555,40.672l6.241-4.66l-0.073-0.442l0.224-1.097c2.586-13.26,5.771-26.594,9.46-39.995
				L1488.223,2633.775z M1502.564,2576.999c-3.997,13.25-7.523,26.412-10.574,39.482l10.882-6.518
				c4.053-13.104,8.604-26.269,13.641-39.502L1502.564,2576.999z M1521.047,2523.31c-4.758,12.359-9.169,24.646-13.182,36.857
				l15.679-7.417c4.915-11.97,10.182-23.98,15.824-36.051L1521.047,2523.31z M1541.994,2473.447
				c-5.139,11.321-9.992,22.597-14.571,33.804l19.989-7.274c5.295-10.77,10.859-21.562,16.698-32.399L1541.994,2473.447z
				 M1742.263,5595.344c1.287-29.701,3.146-59.356,5.659-88.937h0.006c24.876-359.129,14.475-754.163-34.554-1211.728
				c-22.295-208.014-52.572-428.972-91.156-665.385c23.135,202.394,39.675,392.977,50.619,573.689
				c26.56,438.418,20.213,818.745-4.691,1168.503l-0.028,0.132c-4.36,48.153-6.359,96.712-6.387,145.582
				C1688.499,5543.313,1715.35,5569.36,1742.263,5595.344z M1740.673,5643.011c0.241-10.106,0.543-20.208,0.901-30.308
				c-26.656-25.71-53.244-51.486-79.76-77.319c0.095,9.969,0.258,19.947,0.515,29.936
				C1688.37,5591.275,1714.494,5617.181,1740.673,5643.011z M1739.996,5691.357c0.05-10.171,0.157-20.342,0.319-30.515
				c-25.866-25.494-51.688-51.07-77.431-76.701c0.341,10.053,0.756,20.128,1.254,30.199
				C1689.344,5640.08,1714.639,5665.748,1739.996,5691.357z M1740.198,5740.288c-0.123-10.201-0.196-20.406-0.224-30.602
				c-24.988-25.211-49.93-50.501-74.795-75.841c0.588,10.106,1.248,20.221,1.97,30.344
				C1691.426,5689.622,1715.787,5714.99,1740.198,5740.288z M1741.205,5789.86c-0.291-10.207-0.532-20.403-0.722-30.607
				c-23.991-24.833-47.926-49.729-71.789-74.694c0.812,10.115,1.679,20.246,2.614,30.37
				C1694.533,5739.972,1717.847,5764.954,1741.205,5789.86z M1742.968,5840.006c-0.425-10.177-0.817-20.361-1.159-30.546
				c-22.872-24.353-45.693-48.777-68.447-73.253c1.013,10.106,2.088,20.219,3.219,30.331
				C1698.647,5791.088,1720.78,5815.589,1742.968,5840.006z M1745.431,5890.72c-0.554-10.146-1.075-20.297-1.551-30.442
				c-21.623-23.768-43.213-47.602-64.73-71.492c1.198,10.081,2.452,20.174,3.762,30.26
				C1703.69,5843.003,1724.541,5866.894,1745.431,5890.72z M1748.538,5941.887c-0.666-10.062-1.293-20.121-1.892-30.182
				c-20.252-23.06-40.476-46.177-60.627-69.354c1.366,9.997,2.782,19.997,4.232,29.995
				C1709.624,5895.587,1729.058,5918.769,1748.538,5941.887z M1752.193,5993.413c-0.75-9.885-1.461-19.776-2.161-29.675
				c-18.746-22.208-37.464-44.479-56.127-66.804c1.495,9.821,3.028,19.647,4.601,29.465
				C1716.358,5948.803,1734.253,5971.134,1752.193,5993.413z M1756.335,6045.372c-0.806-9.684-1.601-19.373-2.368-29.068
				c-17.095-21.195-34.173-42.449-51.195-63.75c1.584,9.597,3.213,19.197,4.87,28.791
				C1723.83,6002.744,1740.063,6024.082,1756.335,6045.372z M1760.841,6097.505l-2.469-28.125
				c-15.298-19.983-30.585-40.022-45.833-60.109c1.646,9.247,3.314,18.483,5.004,27.719
				C1731.947,6057.216,1746.389,6077.387,1760.841,6097.505z M1765.639,6149.71l-2.485-26.795
				c-13.35-18.528-26.689-37.104-40-55.729l4.987,26.191C1740.617,6112.204,1753.128,6130.981,1765.639,6149.71z M1770.587,6201.67
				l-2.385-24.864c-11.223-16.748-22.435-33.535-33.641-50.361l4.73,23.955C1749.714,6167.53,1760.147,6184.625,1770.587,6201.67z
				 M1775.557,6253.067l-0.621-6.446l-1.506-15.527c-8.895-14.498-17.806-29.038-26.706-43.603l4.181,20.594
				C1759.123,6223.12,1767.335,6238.113,1775.557,6253.067z M1780.377,6303.028l-1.662-17.316l-18.981-34.523l3.118,15.15
				L1780.377,6303.028z M1784.805,6349.846l-0.868-9.424l-10.199-21.285l1.237,5.953l5.592,14.083L1784.805,6349.846z
				 M1521.4,3004.119l3.437,17.305l-3.017-18.637L1521.4,3004.119z M1511.515,2954.841l4.584,22.788l1.052-3.386l-3.896-23.515
				L1511.515,2954.841z M1501.49,2905.409l5.441,26.784l2.312-5.544l-4.568-27.064L1501.49,2905.409z M1491.319,2855.878
				l6.135,29.83l3.689-6.835l-5.122-29.765L1491.319,2855.878z M1481.014,2806.211l6.678,32.107l5.15-7.501l-5.564-31.774
				L1481.014,2806.211z M1470.574,2756.424l7.12,33.865l6.667-7.702l-5.945-33.339L1470.574,2756.424z M1460.017,2706.502
				l7.45,35.186l8.223-7.571l-6.264-34.492L1460.017,2706.502z M1462.441,2648.881c-1.5,14.069-2.418,28.004-2.72,41.791
				l7.825-5.746c1.321-14.033,3.291-28.175,5.855-42.435L1462.441,2648.881z M1471.571,2591.323
				c-2.905,13.941-5.29,27.744-7.154,41.425l12.298-7.212c2.877-13.664,6.303-27.425,10.227-41.277L1471.571,2591.323z
				 M1485.492,2535.93c-3.89,13.266-7.35,26.426-10.389,39.482l16.753-7.752c3.98-12.796,8.385-25.676,13.188-38.632
				L1485.492,2535.93z M1502.716,2483.691c-4.495,12.362-8.688,24.652-12.544,36.857l20.94-7.436
				c4.629-11.758,9.589-23.577,14.839-35.452L1502.716,2483.691z M1837.422,5686.722c0.996-14.786,2.066-29.583,3.241-44.375
				c24.87-368.983-2.25-779.304-73.793-1256.78c-29.835-199.044-67.378-409.739-112.091-633.936
				c29.354,190.239,53.126,370.338,71.486,541.679c49.124,458.413,59.525,854.194,34.604,1214.062v0.101
				c-2.827,33.225-4.814,66.552-6.096,99.942C1782.269,5633.931,1809.837,5660.363,1837.422,5686.722z M1834.461,5735.012
				c0.582-10.465,1.203-20.927,1.864-31.397c-27.428-26.18-54.828-52.443-82.161-78.777c-0.325,10.229-0.571,20.47-0.761,30.714
				C1780.371,5682.115,1807.396,5708.611,1834.461,5735.012z M1831.998,5783.742c0.481-10.506,0.991-21.019,1.539-31.54
				c-26.835-26.16-53.653-52.418-80.403-78.738c-0.123,10.322-0.185,20.636-0.185,30.963
				C1779.246,5730.951,1805.611,5757.388,1831.998,5783.742z M1829.983,5832.799c0.386-10.515,0.8-21.039,1.248-31.567
				c-26.107-26.057-52.192-52.189-78.22-78.405c0.067,10.367,0.196,20.739,0.364,31.111
				C1778.86,5780.305,1804.407,5806.594,1829.983,5832.799z M1828.359,5882.256c0.302-10.51,0.632-21.016,0.991-31.54
				c-25.234-25.827-50.451-51.761-75.612-77.756c0.235,10.397,0.532,20.792,0.873,31.189
				C1779.146,5830.271,1803.735,5856.312,1828.359,5882.256z M1827.077,5932.007l0.778-31.45
				c-24.215-25.488-48.402-51.075-72.55-76.74c0.397,10.389,0.823,20.784,1.304,31.176
				C1780.058,5880.745,1803.556,5906.421,1827.077,5932.007z M1826.064,5982.105l0.604-31.372
				c-23.045-25.049-46.073-50.177-69.063-75.385c0.532,10.397,1.103,20.798,1.718,31.19
				C1781.536,5931.806,1803.792,5957.003,1826.064,5982.105z M1825.241,6032.38l0.487-31.164
				c-21.724-24.453-43.443-49.01-65.122-73.625c0.661,10.35,1.332,20.697,2.054,31.039
				C1783.495,5983.292,1804.362,6007.879,1825.241,6032.38z M1824.558,6082.775l0.414-30.767
				c-20.263-23.742-40.515-47.568-60.745-71.47c0.756,10.249,1.534,20.476,2.34,30.708
				C1785.879,6035.17,1805.219,6059.016,1824.558,6082.775z M1823.937,6133.372l0.162-13.146l0.213-17.19
				c-18.634-22.872-37.285-45.819-55.903-68.847c0.834,10.112,1.674,20.205,2.547,30.305
				C1788.605,6087.524,1806.271,6110.494,1823.937,6133.372z M1823.288,6183.94l0.392-29.718
				c-16.877-21.825-33.759-43.728-50.624-65.701l2.664,29.656C1791.572,6140.178,1807.436,6162.098,1823.288,6183.94z
				 M1822.532,6234.447l0.448-28.861c-14.957-20.59-29.936-41.246-44.898-61.976l2.709,28.738
				C1794.712,6193.12,1808.628,6213.825,1822.532,6234.447z M1821.609,6284.685l0.537-27.674
				c-12.902-19.124-25.827-38.318-38.763-57.568l2.648,27.419C1797.903,6246.204,1809.764,6265.479,1821.609,6284.685z
				 M1820.411,6334.456l0.661-25.97l-32.192-52.248l2.469,25.531L1820.411,6334.456z M1818.905,6383.499
				c0.274-7.825,0.521-15.667,0.761-23.526l-3.375-6.11l-21.819-39.558l2.149,22.653l3.985,8.321L1818.905,6383.499z
				 M1817.007,6431.033c0.286-6.563,0.593-13.126,0.856-19.712l-17.8-37.207l1.635,18.237L1817.007,6431.033z M1814.83,6475.696
				l0.677-13.194l-9.891-25.099l0.856,10.49L1814.83,6475.696z M1523.981,3084.424l0.252,1.117l-0.229-1.209L1523.981,3084.424z
				 M1512.108,3032.902l5.217,22.597l0.548-2.399l-4.663-23.563L1512.108,3032.902z M1500.146,2981.312l6.275,27.031l1.59-4.965
				l-5.508-27.484L1500.146,2981.312z M1488.067,2929.593l7.115,30.434l2.81-6.569l-6.197-30.535L1488.067,2929.593z
				 M1475.886,2877.796l7.781,33.065l4.148-7.492l-6.74-32.885L1475.886,2877.796z M1463.617,2825.904l8.29,35.038l5.57-7.915
				l-7.182-34.635L1463.617,2825.904z M1451.252,2773.919l8.704,36.569l7.031-7.954l-7.54-35.992L1451.252,2773.919z
				 M1438.87,2721.766l0.05,0.599l8.895,37.182l8.531-7.708l-7.837-37.006L1438.87,2721.766z M1436.446,2663.854
				c-0.258,14.487,0.118,28.771,1.114,42.888l9.135-6.591c0.022-14.291,0.688-28.727,1.987-43.317L1436.446,2663.854z
				 M1440.588,2605.368c-1.774,14.593-2.995,29.026-3.655,43.292l13.395-7.713c1.679-14.201,3.935-28.545,6.728-43.012
				L1440.588,2605.368z M1450.082,2548.248c-2.939,14.117-5.441,28.108-7.462,41.959l17.683-8.021
				c2.967-13.577,6.409-27.252,10.271-41.036L1450.082,2548.248z M1463.387,2493.733c-3.728,13.336-7.075,26.566-10.064,39.69
				l21.707-7.554c3.829-12.678,8.01-25.441,12.544-38.29L1463.387,2493.733z M1933.414,5777.971
				c24.836-378.818-19.004-804.337-113.037-1301.518c-35.573-188.079-78.344-386.434-127.294-596.41
				c33.675,176.077,62.642,343.632,86.628,503.641c71.682,478.379,98.842,889.607,73.893,1259.598v0.078
				c-1.45,18.369-2.754,36.714-3.935,55.049C1877.562,5725.021,1905.488,5751.539,1933.414,5777.971z M1929.821,5827.599
				l2.39-32.897c-27.876-26.37-55.752-52.827-83.605-79.376c-0.638,10.582-1.237,21.147-1.802,31.716
				C1874.455,5773.988,1902.135,5800.842,1929.821,5827.599z M1926.132,5877.271l2.452-32.852
				c-27.568-26.622-55.13-53.345-82.67-80.154c-0.532,10.63-1.024,21.257-1.483,31.878
				C1871.645,5823.277,1898.883,5850.325,1926.132,5877.271z M1922.303,5926.914l2.541-32.726
				c-27.059-26.743-54.117-53.583-81.148-80.524c-0.431,10.661-0.834,21.313-1.203,31.951
				C1869.081,5872.813,1895.692,5899.917,1922.303,5926.914z M1918.273,5976.553l2.664-32.561
				c-26.348-26.711-52.701-53.532-79.038-80.445c-0.336,10.671-0.655,21.33-0.946,31.976
				C1866.714,5922.637,1892.502,5949.654,1918.273,5976.553z M1914.007,6026.111c0.963-10.756,1.892-21.54,2.816-32.34
				c-25.452-26.544-50.91-53.197-76.351-79.947l-0.744,31.942C1864.486,5972.654,1889.261,5999.441,1914.007,6026.111z
				 M1909.44,6075.627c1.019-10.691,2.021-21.394,3-32.125c-24.355-26.225-48.738-52.567-73.099-79.004l-0.588,31.903
				C1862.32,6022.917,1885.902,6049.33,1909.44,6075.627z M1904.52,6124.961c1.097-10.588,2.172-21.201,3.219-31.839
				c-23.084-25.749-46.185-51.624-69.286-77.593l-0.47,31.783C1860.17,6073.298,1882.359,6099.187,1904.52,6124.961z
				 M1899.213,6174.074c1.181-10.448,2.323-20.918,3.448-31.414c-21.629-25.133-43.286-50.381-64.948-75.724l-0.392,31.495
				C1857.965,6123.755,1878.609,6148.969,1899.213,6174.074z M1893.431,6223.027c1.271-10.308,2.508-20.641,3.717-30.994
				c-19.995-24.347-40.034-48.811-60.084-73.364l-0.017,1.713l-0.364,29.485C1855.619,6174.354,1874.55,6198.748,1893.431,6223.027z
				 M1887.162,6271.662c1.366-10.134,2.698-20.283,3.991-30.468c-18.214-23.406-36.468-46.913-54.744-70.51l-0.425,30.742
				C1853.078,6224.934,1870.145,6248.356,1887.162,6271.662z M1880.321,6319.958c1.467-9.905,2.894-19.835,4.293-29.779
				c-16.278-22.281-32.594-44.663-48.945-67.131l-0.498,30.137L1880.321,6319.958z M1872.899,6367.784
				c1.562-9.625,3.09-19.27,4.579-28.934l-42.737-63.191l-0.633,29.292l26.51,42.939L1872.899,6367.784z M1864.872,6415.085
				c1.646-9.261,3.247-18.547,4.814-27.856l-20.09-32.542l-16.071-26.029c-0.241,9.396-0.509,18.788-0.789,28.153L1864.872,6415.085
				z M1856.179,6461.66c1.707-8.763,3.381-17.542,5.01-26.342l-29.264-53.118c-0.302,8.838-0.638,17.663-0.979,26.476
				C1839.42,6426.407,1847.828,6444.064,1856.179,6461.66z M1846.887,6507.244c1.719-8.086,3.415-16.171,5.066-24.288
				l-22.177-46.684c-0.375,8.086-0.756,16.152-1.164,24.204C1834.757,6476.127,1840.853,6491.711,1846.887,6507.244z
				 M1837.097,6551.302c1.634-7.019,3.23-14.058,4.797-21.103c-4.948-12.81-9.936-25.665-14.973-38.562
				c-0.397,6.871-0.795,13.745-1.231,20.59C1829.546,6525.293,1833.347,6538.316,1837.097,6551.302z M1827.117,6592.643
				l3.874-15.676c-2.603-9.127-5.234-18.271-7.893-27.439l-1.103,14.251C1823.736,6573.424,1825.448,6583.049,1827.117,6592.643z
				 M1817.998,6627.726l1.159-4.285l-1.562-9.393l-0.118,1.184L1817.998,6627.726z M1516.597,3115.317l5.738,22.177l0.202-1.282
				l-5.334-23.375L1516.597,3115.317z M1502.609,3061.471l7.047,27.09l1.008-4.263l-6.387-27.764L1502.609,3061.471z
				 M1488.57,3007.601l8.049,30.845l2.049-6.205l-7.215-31.134L1488.57,3007.601z M1474.442,2953.587l8.861,33.829l3.241-7.408
				l-7.887-33.784L1474.442,2953.587z M1460.269,2899.545l9.482,36.124l4.551-8.046l-8.424-35.836L1460.269,2899.545z
				 M1446.035,2845.433l9.958,37.845l5.933-8.268l-8.833-37.375L1446.035,2845.433z M1431.755,2791.271l10.339,39.188l7.355-8.175
				l-9.169-38.567L1431.755,2791.271z M1417.644,2736.871l0.549,3.068l9.852,37.282l8.811-7.839l-9.432-39.446L1417.644,2736.871z
				 M1410.227,2678.713c0.991,14.895,2.631,29.575,4.931,44.031l10.126-7.201c-1.259-14.584-1.886-29.345-1.83-44.296
				L1410.227,2678.713z M1409.567,2619.191c-0.61,15.223-0.655,30.255-0.078,45.08l14.223-8.061
				c0.465-14.733,1.523-29.636,3.163-44.708L1409.567,2619.191z M1414.599,2560.375c-1.926,14.929-3.347,29.676-4.271,44.266
				l18.377-8.181c1.903-14.299,4.293-28.746,7.182-43.331L1414.599,2560.375z M1424.126,2503.584
				c-2.911,14.279-5.458,28.433-7.551,42.441l22.373-7.643c2.961-13.566,6.342-27.246,10.081-41.03L1424.126,2503.584z
				 M1366.734,2562.807c1.036-15.222,2.53-30.61,4.512-46.171c-56.071,13.725-113.143,27.389-170.535,41.12
				C676.118,2683.241,125.441,2814.966,91.576,3061.402c-40.039,291.378,80.655,625.805,300.225,979.888
				c-167.529-303.595-254.991-590.748-220.326-845.706c33.625-257.933,515.261-413.042,989.649-565.805
				C1230.293,2607.5,1299.306,2585.287,1366.734,2562.807z M1365.15,2624.483c-0.336-15.704-0.039-31.64,0.756-47.753
				c-65.911,21.942-133.289,43.636-200.813,65.385c-470.52,151.521-948.244,305.37-980.777,555.17v0.028
				c-39.435,290.077,81.215,622.9,298.759,974.615c-165.643-301.27-252.92-586.746-218.876-840.357h-0.017
				c32.343-261.272,452.843-436.16,877.591-612.805C1216.82,2687.557,1292.001,2656.278,1365.15,2624.483z M1369.768,2686.446
				c-2.032-15.768-3.403-31.775-4.12-48.021c-71.761,31.131-145.402,61.758-218.898,92.326
				c-421.233,175.184-838.263,348.636-869.671,602.393l-0.028,0.078c-38.758,288.409,81.444,619.119,296.072,967.833
				c-162.962-298.365-249.573-581.632-216.189-833.52h-0.017c31.229-264.796,399.084-457.436,778.022-655.873
				C1213.725,2770.409,1292.992,2728.892,1369.768,2686.446z M1381.103,2746.622c-3.84-15.222-6.958-30.722-9.398-46.457
				c-75.528,41.679-153.379,82.455-230.771,122.976c-375.837,196.816-740.692,387.883-771.12,645.864l-0.028,0.104
				c-37.672,283.956,79.205,608.895,286.685,950.789l2.323,3.017c-157.443-292.755-241.585-571.26-209.136-819.442h-0.017
				c30.216-268.26,351.644-476.896,687.907-695.165C1219.182,2855.313,1301.713,2801.722,1381.103,2746.622z M1397.341,2804.118
				l-12.376-43.076l-0.302-1.105c-78.332,54.263-159.603,107.037-240.057,159.24c-333.631,216.556-652.536,423.557-682.068,685.713
				l-0.028,0.129c-34.733,265.355,65.682,566.398,247.076,882.837c4.887,6.16,9.768,12.315,14.694,18.475
				c-138.875-273.094-211.98-533.342-181.882-766.92h-0.011c29.253-271.406,308.98-494.399,605.219-730.561
				C1231.323,2942.123,1316.333,2874.309,1397.341,2804.118z M1413.793,2861.403l-12.505-43.527
				c-79.793,68.951-163.326,135.553-245.61,201.126c-294.057,234.418-571.724,455.774-600.394,721.77l-0.028,0.132
				c-31.872,247.018,53.289,524.794,210.177,816.414c7.904,9.681,15.903,19.381,23.896,29.068
				c-119.9-252.271-181.82-493.157-154.19-711.039h-0.017c28.312-273.967,270.049-509.627,528.555-761.627
				C1247.54,3031.953,1333.188,2948.44,1413.793,2861.403z M1430.222,2918.596l-8.598-29.93l-3.644-12.692
				c-79.233,85.164-163.096,166.93-245.274,247.04c-256.754,250.298-496.867,484.363-524.687,753.656l-0.028,0.151
				c-29.063,228.843,42.021,483.862,175.875,751.146c10.367,12.396,20.828,24.794,31.352,37.204
				c-101.478-231.137-152.539-452.311-127.356-654.039h0.011c27.417-275.624,234.152-522.046,456.856-787.519
				C1267.181,3125.359,1351.8,3024.474,1430.222,2918.596z M1446.628,2975.697l-11.9-41.414
				c-76.95,103.228-159.542,201.697-240.04,297.662c-221.434,263.945-426.965,508.959-453.934,780.611v0.148
				c-26.331,210.975,31.867,443.892,144.383,687.56c12.617,14.713,25.357,29.446,38.164,44.176
				c-84.215-210.211-125.425-411.88-102.698-597.397h0.022c26.409-276.047,200.723-531.125,389.523-807.393
				C1289.756,3223.16,1371.951,3102.849,1446.628,2975.697z M1462.978,3032.661l-11.425-39.807
				c-73.171,123.558-153.144,240.648-230.692,354.116c-187.871,274.908-361.323,528.727-387.362,801.471v0.177
				c-23.706,193.474,23.09,405.099,116.133,625.967c14.464,16.488,29.051,32.989,43.745,49.485
				c-68.206-189.522-100.353-371.863-80.045-541.092h0.017c25.318-274.712,169.444-535.763,326.069-819.461
				C1315.035,3326.536,1393.58,3184.229,1462.978,3032.661z M1479.301,3089.535l-10.831-37.733
				c-67.982,146.799-144.199,284.866-217.683,417.956c-155.998,282.565-299.542,542.564-324.558,814.566v0.176
				c-21.148,176.206,15.371,367.114,90.613,565.819c16.194,18.061,32.527,36.13,48.973,54.196
				c-53.653-169.265-77.694-332.61-59.743-485.597h0.017c24.075-270.83,140.051-534.372,266.242-821.113
				C1342.911,3437.413,1416.698,3269.712,1479.301,3089.535z M1495.562,3146.255l-10.076-35.142
				c-61.405,174.017-132.83,336.406-201.271,491.917c-125.8,285.84-241.417,548.551-265.252,817.18v0.173
				c-18.685,159.217,8.794,330.069,68.055,507.353c17.845,19.496,35.841,38.995,53.955,58.486
				c-40.705-149.514-57.823-294.328-42.194-431.194h-0.006c22.552-263.119,112.41-524.386,210.048-808.308
				C1373.434,3558.863,1441.445,3361,1495.562,3146.255z M1511.761,3202.922l-9.119-31.878
				c-53.283,206.855-118.999,398.046-181.54,579.888c-97.364,283.128-186.97,543.661-209.382,805.163l-0.028,0.201
				c-16.306,142.495,3.347,293.923,48.452,450.515c19.407,20.792,38.965,41.582,58.646,62.368
				c-29.449-130.44-40.717-257.278-27.277-378.239h-0.006c20.677-249.486,86.46-501.326,157.622-773.824
				C1406.896,3695.95,1468.19,3461.082,1511.761,3202.922z M1527.899,3259.362l-7.915-27.697
				c-43.297,248.199-102.469,474.825-158.316,688.699c-70.988,271.854-136.614,523.098-157.213,771.641l-0.022,0.173
				c-14.039,126.091-0.907,258.818,31.945,395.527c20.851,21.929,41.859,43.857,62.973,65.758
				c-19.944-111.988-26.437-221.348-15.102-326.59h-0.011c18.175-226.41,62.234-457.618,109.488-705.621
				C1443.924,3857.79,1497.739,3575.264,1527.899,3259.362z M1543.975,3315.817l-6.392-22.441
				c-30.714,303.206-82.603,575.626-131.117,830.27c-47.171,247.547-91.151,478.326-109.281,704.244l-0.022,0.176
				c-11.872,109.97-4.03,224.645,18.461,342.252c22.222,22.975,44.585,45.931,67.07,68.864
				c-12.225-94.218-15.029-186.648-5.704-276.369h-0.005c14.475-186.203,39.782-377.604,66.499-579.833
				C1485.828,4062.462,1531.789,3714.629,1543.975,3315.817z M1559.928,3371.868l-4.355-15.298
				c-13.96,382.487-58.282,718.048-99.25,1028.088c-26.656,201.776-51.901,392.739-66.393,579.116l-0.028,0.185
				c-9.807,94.131-6.118,191.381,7.937,290.654c23.527,23.93,47.176,47.828,70.943,71.705
				c-6.297-77.146-6.488-153.172,0.952-227.594h-0.017c8.34-110.588,18.589-225.604,29.135-344.046
				C1534.907,4349.85,1574.549,3904.404,1559.928,3371.868z M1575.87,3428.21l-1.735-6.129
				c10.876,510.859-27.445,941.332-62.385,1333.716c-10.411,116.944-20.532,230.505-29.085,343.889l-0.028,0.157
				c-7.865,78.573-7.109,159.041,0.403,240.779c24.724,24.783,49.572,49.519,74.52,74.215
				c-2.133-60.731-0.756-120.865,4.909-180.172h-0.011c24.87-339.509,47.949-704.132,43.963-1121.878
				C1604.395,3899.769,1595.322,3672.818,1575.87,3428.21z M2028.214,5867.302c23.678-510.367-94.672-1110.02-290.793-1851.949
				c35.931,159.52,67.988,312.21,95.696,458.71c94.268,498.393,138.181,925.059,113.227,1305.112v0.044l-0.745,10.274
				C1973.146,5815.525,2000.686,5841.461,2028.214,5867.302z M2025.147,5919.334c0.772-11.646,1.578-23.28,2.233-35.004
				c-27.646-25.939-55.321-51.987-82.99-78.12l-2.418,33.126C1969.709,5866.107,1997.439,5892.771,2025.147,5919.334z
				 M2021.206,5970.899c1.002-11.517,2.021-23.031,2.86-34.649c-27.758-26.591-55.55-53.297-83.337-80.107l-2.491,33.093
				C1965.914,5916.572,1993.577,5943.796,2021.206,5970.899z M2016.392,6021.963c1.237-11.399,2.245-22.922,3.28-34.439
				c-27.551-27.011-55.142-54.145-82.732-81.392l-2.592,32.992C1961.715,5966.858,1989.082,5994.471,2016.392,6021.963z
				 M2010.229,6072.151c1.467-11.226,2.799-22.527,4.153-33.815c-27.098-27.252-54.24-54.641-81.4-82.145
				c-0.896,10.977-1.808,21.929-2.732,32.861C1956.935,6016.88,1983.613,6044.58,2010.229,6072.151z M2003.081,6121.72
				c1.696-11.011,3.549-21.943,5.105-33.029c-26.42-27.35-52.902-54.842-79.407-82.449c-0.94,10.913-1.903,21.797-2.888,32.67
				C1951.651,6066.651,1977.4,6094.258,2003.081,6121.72z M1995.01,6170.841c1.942-10.901,3.795-21.844,5.547-32.835
				c-25.363-27.115-50.798-54.375-76.256-81.747c-1.008,10.862-2.037,21.693-3.09,32.508
				C1945.852,6116.26,1970.47,6143.621,1995.01,6170.841z M1985.897,6219.291c2.177-10.755,4.12-21.623,6.107-32.471
				c-24.109-26.731-48.296-53.605-72.516-80.602c-1.08,10.778-2.189,21.534-3.325,32.27
				C1939.46,6165.555,1962.717,6192.501,1985.897,6219.291z M1975.485,6266.753c2.39-10.493,4.747-21.016,7.036-31.564
				c-22.676-26.213-45.441-52.573-68.251-79.049c-1.164,10.663-2.368,21.29-3.588,31.903
				C1932.351,6214.416,1953.969,6240.66,1975.485,6266.753z M1964.145,6313.784c2.62-10.302,5.295-20.582,7.753-30.955
				c-21.024-25.486-42.138-51.12-63.314-76.874c-1.254,10.548-2.541,21.078-3.868,31.579
				C1924.598,6263.084,1944.419,6288.508,1964.145,6313.784z M1951.914,6360.263c2.849-10.171,5.491-20.426,8.133-30.688
				c-19.132-24.515-38.371-49.172-57.66-73.941c-1.355,10.406-2.754,20.787-4.187,31.145l43.208,59.124L1951.914,6360.263z
				 M1938.374,6405.727c3.062-9.911,5.956-19.88,8.883-29.838l-16.311-22.317l-35.343-48.354
				c-1.467,10.229-2.978,20.439-4.528,30.624l7.63,11.268L1938.374,6405.727z M1923.854,6450.448
				c3.224-9.586,6.605-19.11,9.706-28.741l-45.391-67.078c-1.579,10.022-3.196,20.031-4.87,30
				C1896.918,6406.687,1910.436,6428.624,1923.854,6450.448z M1908.494,6494.63c3.415-9.368,6.745-18.777,9.975-28.22
				c-12.723-20.714-25.547-41.525-38.455-62.449c-1.691,9.751-3.426,19.491-5.206,29.191
				C1886.126,6453.748,1897.366,6474.247,1908.494,6494.63z M1892.11,6537.868c3.56-9.04,6.913-18.158,10.316-27.251
				c-10.355-19.023-20.828-38.142-31.38-57.364c-1.791,9.396-3.644,18.757-5.53,28.103
				C1874.483,6500.289,1883.35,6519.125,1892.11,6537.868z M1874.735,6579.864c3.605-8.506,7.254-16.989,10.775-25.528
				c-8.021-17.21-16.132-34.498-24.327-51.864c-1.881,8.951-3.806,17.878-5.777,26.79
				C1861.939,6546.206,1868.382,6563.077,1874.735,6579.864z M1856.789,6620.998c3.583-7.929,7.187-15.849,10.641-23.817
				c-5.637-15.01-11.363-30.073-17.156-45.203c-1.914,8.293-3.857,16.571-5.855,24.828
				C1848.622,6591.597,1852.748,6606.33,1856.789,6620.998z M1838.34,6660.539c3.426-7.104,6.661-14.26,9.98-21.394
				c-3.336-12.29-6.745-24.632-10.215-37.005c-1.858,7.282-3.734,14.562-5.659,21.822
				C1834.489,6636.201,1836.442,6648.392,1838.34,6660.539z M1820.075,6696.875c2.726-5.32,5.486-10.632,8.189-15.961
				c-1.321-8.853-2.692-17.716-4.097-26.619c-1.534,5.469-3.095,10.935-4.674,16.395
				C1819.733,6679.448,1819.929,6688.174,1820.075,6696.875z M1803.836,6728.541c1.181-2.211,2.233-4.453,3.415-6.664l-0.067-10.229
				l-1.674,5.298C1804.973,6720.819,1804.402,6724.682,1803.836,6728.541z M1831.763,6704.765
				c-3.778,7.358-7.45,14.752-11.346,22.071c2.877,485.169-140.605,894.371-880.468,1100.969
				c-247.95,91.19-460.243,177.633-640.434,261.057c200.275-90.703,445.588-181.303,741.968-273.36l0.381-0.124l0.179-0.033
				C1828.717,7648.4,1905.163,7220.48,1831.763,6704.765z M1853.985,6660.161c-3.901,8.229-7.881,16.432-11.94,24.607
				c79.071,530.168,10.299,971.808-797.098,1143.23c-176.206,54.736-334.191,108.906-475.356,162.845
				c166.024-60.205,357.723-118.604,577.819-175.419l0.274-0.078l0.341-0.045c14.929-2.32,29.488-4.778,43.902-7.294
				c15.707-5.718,32.04-11.119,48.99-16.202c21.926-8.793,45.245-16.854,69.93-24.184c22.183-9.015,45.861-17.207,71.016-24.612
				c55.769-22.947,121.266-40.462,197.157-52.108c330.771-162.839,384.401-435.499,333.671-762.036
				C1899.308,6842.762,1878.693,6752.832,1853.985,6660.161z M1874.545,6616.204c-3.874,8.623-8.038,17.156-12.035,25.735
				c26.572,98.288,48.783,193.656,62.967,284.95c49.947,321.468,0.548,591.528-306.97,758.59c45.9-5.575,95.304-9.163,148.363-10.68
				c215.417-123.314,273.172-311.633,248.907-539.684C1999.09,6978.318,1943.915,6802.558,1874.545,6616.204z M1893.509,6571.555
				c-3.84,9.144-7.629,18.298-11.587,27.4c71.929,191.946,129.544,373.089,146.751,534.797
				c24.092,226.444-30.495,414.522-234.342,540.445c40.213-0.599,82.435-0.053,126.723,1.668
				c157.969-97.521,211.162-239.45,200.163-411.922C2108.618,7066.472,2012.698,6828.659,1893.509,6571.555z M1911.293,6526.903
				c-3.594,9.549-7.159,19.11-10.982,28.573c122.032,262.403,220.947,505.368,233.849,707.647
				c10.966,171.879-39.664,314.158-189.69,413.764c37.677,1.794,76.782,4.4,117.398,7.87
				c124.339-79.594,172.399-192.201,168.789-329.263C2224.773,7132.254,2083.317,6843.568,1911.293,6526.903z M1928.035,6481.993
				c-3.426,9.692-7.075,19.295-10.663,28.92c175.209,321.938,320.214,615.825,326.231,844.284
				c3.605,136.877-42.234,250.041-160.393,331.452c36.099,3.3,73.328,7.257,111.75,11.898
				c103.874-66.653,147.893-159.598,148.666-273.002C2345.249,7184.95,2154.764,6851.682,1928.035,6481.993z M1943.467,6436.376
				c-3.275,9.914-6.639,19.79-10.031,29.662c230.216,375.009,424.788,713.524,423.136,959.557
				c-0.772,113.457-42.799,207.09-141.422,275.437c34.867,4.38,70.664,9.287,107.44,14.761
				c91.8-57.098,133.311-136.544,136.849-233.959C2468.608,7229.229,2226.273,6855.085,1943.467,6436.376z M1957.685,6390.148
				c-3,10.229-5.956,20.479-9.146,30.625c286.478,423.94,533.218,803.211,523.848,1061.514
				c-3.543,97.56-43.14,177.753-130.166,236.46c33.714,5.153,68.201,10.75,103.527,16.827
				c85.766-49.849,126.354-119.956,131.8-206.727C2593.938,7267.796,2297.558,6855.189,1957.685,6390.148z M1970.923,6343.504
				c-2.765,10.386-5.625,20.73-8.581,31.033c343.763,470.293,644.923,887.981,628.153,1155.13
				c-5.458,86.938-44.142,157.826-125.229,209.299c32.5,5.701,65.637,11.769,99.491,18.256
				c84.59-44.156,125.8-107.879,132.735-187.896c23.011-265.459-324.765-711.036-719.449-1216.692L1970.923,6343.504z
				 M1983.165,6296.481c-2.564,10.481-5.43,20.829-8.133,31.249l13.216,16.936c396.363,507.82,745.64,955.3,722.186,1225.777
				c-6.952,80.186-46.135,144.736-125.833,190.614c30.966,6.025,62.48,12.368,94.588,19.048
				c87.876-39.365,131.492-98.8,139.76-175.081c28.408-262.106-352.893-723.813-790.028-1253.133L1983.165,6296.481z
				 M1993.946,6248.387c-2.357,10.691-4.691,21.408-7.171,32.046l52.152,63.18c438.989,531.562,821.912,995.239,792.911,1262.777
				c-8.279,76.423-49.639,136.757-132.08,178.025c29.068,6.129,58.567,12.511,88.576,19.183
				c95.78-34.873,143.661-91.534,153.261-166.475c33.082-258.232-380.052-734.432-858.285-1285.66
				C2053.74,6317.383,2023.921,6283.008,1993.946,6248.387z M2003.77,6199.865c-2.037,10.963-4.047,21.948-6.297,32.802
				c32.091,37.076,64.002,73.863,95.64,110.323c480.26,553.568,895.145,1031.782,861.33,1295.761
				c-9.617,75.027-54.851,132.66-144.221,169.738l30.378,6.882c17.112,3.913,33.899,7.688,50.512,11.38
				c108.688-30.014,163.074-84.775,174.112-160.295c37.129-254.009-406.232-743.298-924.23-1314.952
				C2095.732,6301.55,2049.894,6250.974,2003.77,6199.865z M2012.648,6150.925c-1.842,11.05-3.862,22.013-5.861,32.978
				c48.346,53.585,96.39,106.592,143.796,158.918c520.232,574.109,965.49,1065.5,927.488,1325.518
				c-11.01,75.321-61.881,131.128-162.161,163.872c25.323,5.539,50.082,10.826,74.213,15.833
				c124.825-24.478,187.065-77.504,199.586-154.403c40.61-249.534-431.477-750.729-987.98-1341.546
				C2139.55,6286.084,2076.325,6218.953,2012.648,6150.925z M2020.361,6101.283c-1.646,11.167-3.426,22.262-5.189,33.367
				c66.029,70.557,131.576,140.158,196.004,208.554c558.872,593.322,1032.968,1096.645,991.323,1352.515
				c-12.399,76.203-69.729,130.362-182.956,158.347c22.536,4.557,44.517,8.873,66.006,12.961
				c143.947-17.993,215.282-69.172,229.299-147.891c43.605-244.997-455.759-757.063-1049.481-1365.876
				C2185.047,6270.895,2103.009,6186.77,2020.361,6101.283z M2026.843,6050.872c-1.36,11.394-2.687,22.805-4.221,34.114
				c85.032,87.985,169.438,174.546,252.041,259.237c596.247,611.406,1097.738,1125.651,1052.974,1377.15
				c-13.764,77.308-78.175,129.704-205.822,152.438c18.763,3.44,37.078,6.661,54.99,9.715
				c166.427-10.333,248.252-59.371,263.807-140.309c46.174-240.36-479.129-762.375-1108.837-1388.158
				C2232.117,6256.022,2129.861,6154.404,2026.843,6050.872z M2032.413,6000.001c-1.103,11.556-2.25,23.073-3.543,34.512
				c105.43,106.001,210.093,210.032,312.042,311.356c632.384,628.438,1159.921,1152.667,1112.437,1399.792
				c-15.03,78.237-86.589,128.599-229.041,145.671c13.35,2.113,26.437,4.103,39.301,5.992
				c192.405-1.293,286.13-47.736,303.242-131.134c48.374-235.711-501.553-766.87-1166.067-1408.681
				C2280.765,6241.589,2157.026,6122.064,2032.413,6000.001z M2037.07,5948.705c-0.907,11.641-2.06,23.138-3.112,34.694
				c127.132,124.583,253.407,246.55,375.809,364.763c667.324,644.532,1219.585,1177.938,1169.784,1420.615
				c-16.043,78.179-93.3,126.105-247.491,137.843l13.171,1.592c222.33,9.379,329.556-33.913,348.269-119.981
				c50.238-231.099-523.12-770.659-1221.253-1427.634C2330.908,6227.584,2184.476,6089.769,2037.07,5948.705z M2040.428,5896.569
				c-0.722,11.769-1.438,23.526-2.267,35.231c150.031,143.664,299.139,283.995,442.98,419.344
				c701.078,659.746,1276.848,1201.588,1225.06,1439.829c-16.048,73.829-91.134,118.447-239.671,128.372
				c225.75,13.568,334.913-26.348,354.012-109.864c51.805-226.5-543.82-773.805-1274.458-1445.149
				C2382.355,6213.903,2211.898,6057.272,2040.428,5896.569z M1525.039,3202.135l5.849,20.44l-5.614-21.811L1525.039,3202.135z
				 M1509.002,3146.048l7.713,26.966l0.549-3.361l-7.198-27.837L1509.002,3146.048z M1492.903,3089.888l8.928,31.131l1.383-5.64
				l-8.2-31.593L1492.903,3089.888z M1476.788,3033.71l9.874,34.406l2.424-7.137l-8.995-34.529L1476.788,3033.71z
				 M1460.633,2977.427l10.624,37.011l3.605-8.013l-9.639-36.863L1460.633,2977.427z M1444.473,2921.152l11.206,39.032l4.875-8.436
				l-10.143-38.676L1444.473,2921.152z M1428.285,2864.835l5.833,20.283l5.821,20.286l6.224-8.514l-10.535-40.037L1428.285,2864.835
				z M1412.102,2808.492l11.996,41.738l7.601-8.312l-10.826-41.075L1412.102,2808.492z M1395.998,2752.063
				c0.504,1.805,0.935,3.63,1.455,5.43l10.691,37.221l9.023-7.895l-11.055-41.828L1395.998,2752.063z M1383.784,2693.476
				c2.239,15.318,5.139,30.392,8.738,45.195l10.882-7.63c-2.558-14.895-4.433-30.011-5.631-45.351L1383.784,2693.476z
				 M1378.427,2632.866c0.565,15.833,1.746,31.436,3.566,46.798l14.856-8.293c-0.772-15.251-0.918-30.714-0.448-46.376
				L1378.427,2632.866z M1379.088,2572.331c-0.879,15.712-1.237,31.218-1.024,46.524l18.931-8.315
				c0.784-15.013,2.121-30.193,3.969-45.55L1379.088,2572.331z M1384.697,2513.327c-2.021,15.18-3.56,30.188-4.663,45.032
				l22.827-7.683c2.038-14.414,4.495-28.959,7.378-43.647L1384.697,2513.327z M4000,2090.075v-92.595
				c-51.699-242.257-238.859-516.977-428.667-795.537c-216.211-317.329-435.854-639.682-460.517-922.023
				c-8.615-98.685,6.773-192.604,54.548-279.92h-14.957c-46.37,87.745-61.187,182.027-52.539,281.037
				c24.959,285.691,245.582,609.485,462.756,928.225C3773.853,1522.202,3983.728,1830.278,4000,2090.075z M32.639,9000h13.899
				C27.389,8952.236,11.777,8905.385,0,8859.495v47.859C9.326,8937.855,20.235,8968.74,32.639,9000z M2857.756,0
				c-9.018,43.739-10.518,89.046-5.732,135.688c21.954,213.667,173.905,456.132,327.978,701.971
				c195.019,311.194,393.436,627.792,338.955,902.261l-0.017,0.053c-47.73,230.091-403.399,312.7-819.768,409.401
				c-146.247,33.958-300.04,69.678-450.452,114.095c182.167-46.628,368.476-78.817,542.258-108.845
				c412.255-71.218,753.532-130.185,796.482-339.476h-0.006c53.395-271.314-151.173-592.363-353.609-910.055
				c-165.15-259.173-328.901-516.171-351.611-744.252c-5.531-55.522-2.737-109.265,10.355-160.84h13.58
				c-13.524,51.148-16.524,104.467-11.038,159.567c22.401,225.022,185.324,480.711,349.635,738.574
				c203.835,319.881,409.814,643.149,355.428,919.49l-0.022,0.05c-44.691,218.028-389.943,277.684-807.006,349.733
				c-135.394,23.389-278.412,48.105-421.06,79.936c177.068-32.967,354.37-53.527,518.726-72.578
				c409.49-47.456,738.122-85.556,777.865-281.922h-0.011c53.311-273.142-158.691-600.776-369.814-927.061
				c-175.478-271.18-350.357-541.453-373.525-781.031c-6.197-64.056-1.534-125.83,16.726-184.759h13.776
				c-18.847,58.506-23.767,119.877-17.61,183.536c22.866,236.408,196.883,505.351,371.499,775.196
				c212.556,328.493,425.991,658.352,371.689,936.602l-0.022,0.025c-41.595,205.663-374.41,244.247-789.099,292.308
				c-124.428,14.422-256.284,29.715-389.792,50.605c170.317-20.644,337.958-30.927,492.585-40.395
				c403.847-24.736,718.285-44,754.825-227.345h0.006c53.205-275.028-166.13-609.203-385.879-944.002
				c-185.817-283.089-371.947-566.667-395.574-817.796C2961.641,136.06,2968.42,66.219,2992.601,0h14.056
				c-24.965,65.802-32.091,135.26-25.284,207.563c23.308,247.801,208.582,530.067,393.542,811.857
				c221.204,337.002,441.989,673.379,387.749,953.596v0.047c-38.5,193.141-357.32,212.68-766.799,237.759
				c-113.267,6.941-233.53,14.305-356.677,25.88c162.01-9.706,319.307-11.044,463.836-12.264
				c395.596-3.339,694.73-5.877,728.131-176.181h0.011c53.155-276.973-173.429-617.644-401.748-960.898
				c-196.228-295.009-393.744-591.943-417.813-854.567c-7.456-81.377,1.685-159.34,32.55-232.794h14.346
				c-31.844,73.026-41.422,150.614-34,231.625c23.762,259.296,220.387,554.892,415.731,848.577
				c229.791,345.462,457.841,688.333,403.663,970.52v0.02c-35.438,180.678-339.139,183.256-740.77,186.643
				c-101.579,0.859-209.483,1.774-320.891,5.628c151.968-0.193,297.902,6.051,431.639,11.783
				c385.062,16.49,668.181,28.623,698.525-128.805h0.006c53.126-278.972-180.645-626.08-417.455-977.705
				c-206.679-306.875-415.68-617.204-440.192-891.404c-8.061-90.152,3.784-176.259,42.049-256.881h14.554
				c-39.44,80.208-51.744,165.948-43.711,255.761c24.209,270.763,232.293,579.734,438.065,885.258
				c238.311,353.861,473.559,703.172,419.42,987.388v0.025c-32.455,168.408-320.287,156.077-711.763,139.309
				c-89.197-3.82-183.835-7.876-282.061-10.087c140.152,7.767,273.603,20.163,395.776,31.509
				c372.518,34.607,639.18,59.376,666.546-85.444c3.146-16.639,5.228-33.543,6.37-50.675v75.436
				c-51.01,131.439-313.962,107.028-674.086,73.577c-264.675-24.587-582.387-54.086-906.178-30.591
				c-44.333,4.072-88.749,9.085-133.127,15.195c-40.689,6.443-81.299,13.764-121.719,22.091
				c-37.599,8.592-74.99,17.996-112.041,28.349c-33.815,10.294-67.288,21.335-100.336,33.199
				c-30.596,11.861-60.773,24.397-90.395,37.683c-26.751,12.9-52.992,26.384-78.64,40.493c-23,13.611-45.413,27.714-67.215,42.332
				l-1.601,1.632c-9.986,13.608-20.313,27.087-30.938,40.451c-8.923,15.004-18.159,29.863-27.669,44.601
				c-7.848,16.423-15.981,32.698-24.372,48.836c-6.74,17.814-13.742,35.472-20.98,52.981c-5.586,19.113-11.402,38.072-17.442,56.877
				c-4.444,20.535-9.102,40.896-13.966,61.097c-3.275,22.004-6.751,43.829-10.417,65.478c-2.06,23.333-4.321,46.463-6.74,69.424
				c-0.828,24.655-1.836,49.082-2.989,73.336c0.442,26.354,0.705,52.489,0.823,78.414c1.735,27.739,3.308,55.237,4.735,82.519
				c3.084,29.351,6.012,58.441,8.799,87.302c4.45,30.781,8.743,61.296,12.902,91.562c5.849,32.281,11.559,64.282,17.123,96.026
				c7.288,33.834,14.436,67.375,21.444,100.625c8.827,35.628,17.509,70.932,26.04,105.937
				c256.004,920.842,420.242,1636.824,390.463,2231.851c174.084,163.236,347.211,322.344,513.391,475.038
				c733.689,674.151,1331.811,1223.74,1278.321,1457.586c-23.756,103.863-173.362,145.341-492.501,107.795
				c-44.781-1.878-93.983-5.835-147.876-11.959c-45.301-1.819-94.918-5.653-149.069-11.581
				c-45.581-1.732-95.287-5.382-149.36-11.036c-46.365-1.624-96.804-5.122-151.521-10.582c-46.499-1.481-96.86-4.73-151.319-9.844
				c-47.316-1.293-98.461-4.335-153.608-9.177c-47.507-1.072-98.685-3.803-153.681-8.242c-48.083-0.787-99.732-3.163-155.103-7.201
				c-48.665-0.439-100.767-2.416-156.497-5.979c-48.883-0.02-101.042-1.48-156.681-4.458c-30.669,0.313-62.609,0.086-95.774-0.683
				c-67.311,1.679-131.912,4.33-193.877,7.923c-109.477,7.968-211.196,18.433-305.688,31.234
				c-37.739,43.538-62.491,94.134-75.494,151.003c-54.352,237.616,93.832,584.126,352.825,980.405h-14.878
				c-258.104-396.604-405.364-743.86-350.592-983.305c12.41-54.254,35.136-102.973,69.147-145.508l-12.382,1.752l-0.655,0.101
				l-0.062,0.006c-9.605,1.475-19.149,2.969-28.604,4.489c-52.774,51.553-85.497,113.748-100.476,185.15
				c-48.822,232.629,88.201,562.365,328.638,937.315h-14.822c-239.525-375.196-375.697-705.635-326.517-939.955
				c14.319-68.234,44.249-128.308,91.671-179.016c-12.371,2.048-24.568,4.142-36.686,6.261
				c-70.529,59.149-112.041,133.309-128.52,220.043c-43.118,226.877,82.849,539.399,304.765,892.667h-14.8
				c-221.003-353.464-346.12-666.605-302.705-895.059c15.757-82.962,53.585-154.765,116.788-213.324
				c-10.283,1.861-20.482,3.745-30.585,5.657c-91.576,66.491-142.844,153.264-160.292,256.43
				c-37.257,220.278,77.8,515.099,281.238,846.296h-14.716c-202.525-331.334-316.816-626.709-279.313-848.429
				c16.67-98.59,63.152-182.584,144.759-248.787c-7.831,1.548-15.673,3.087-23.392,4.666
				c-116.284,73.684-178.282,173.796-196.038,294.563c-31.279,212.68,73.194,489.303,258.215,797.986h-14.699
				c-184.121-308.775-287.832-585.881-256.357-799.873c16.938-115.125,72.696-211.943,175.506-285.702
				c-4.976,1.066-9.835,2.158-14.761,3.241c-145.061,80.852-218.736,195.19-236.01,334.768
				c-25.251,203.981,68.811,461.824,235.529,747.566h-14.604c-165.833-285.762-259.212-544.005-233.821-749.139
				c16.395-132.433,81.892-242.714,208.571-324.063l-3.431,0.809c-178.741,88.134-265.224,217.818-281.076,377.621
				c-19.233,194.02,64.708,432.454,213.289,694.772h-14.587c-147.708-262.274-230.933-501.016-211.599-696.049
				c14.397-145.19,85.201-266.105,227.849-354.502c-199.245,95.802-291.762,237.342-304.457,411.133
				C519.157,8543.238,593.353,8761.616,724,9000h-14.526c-129.779-238.261-203.326-456.84-189.925-640.331
				c11.453-156.883,85.939-288.062,242.223-384.023c-215.237,104.428-311.112,257.155-319.537,443.104
				C434.544,8588.5,499.28,8786.066,612.3,9000h-14.408c-112.186-213.731-176.323-411.41-168.604-581.812
				c7.674-169.415,85.816-311.787,257.241-416.232c-232.954,114.241-332.165,279.053-335.305,477.949
				c-2.446,155.142,53.177,331.138,148.973,520.095h-14.335c-94.974-188.683-150.037-364.679-147.58-520.302
				c2.894-183.187,84.898-338.01,274.073-452.099c-253.62,125.461-356.184,303.628-352.876,516.543
				c2.172,138.75,49.046,292.372,128.134,455.857h-14.246c-78.315-163.141-124.658-316.651-126.83-455.703
				c-3.09-197.704,82.57-365.98,291.454-490.958c-276.547,138.229-382.179,330.579-370.995,558.078
				c5.933,120.519,44.495,251.003,107.591,388.583h-14.134c-62.351-137.132-100.471-267.382-106.398-387.976
				c-10.495-213.536,79.161-396.596,311.616-534.07c-303.74,152.954-412.579,360.604-391.902,603.627
				c8.547,100.482,39.127,207.082,87.115,318.418h-14.011c-47.316-110.79-77.509-217.021-86.051-317.354
				c-19.547-229.821,73.742-428.445,332.557-580.115C172.931,8214.658,49.348,8350.05,0,8503.535v-39.007
				c50.988-127.157,154.812-241.289,324.507-339.369C178.629,8199.816,72.41,8282.18,0,8371.388v-20.546
				c62.385-73.067,147.518-141.465,258.607-204.714C154.162,8199.873,68.604,8256.302,0,8315.325v-17.084
				c54.627-45.815,119.435-90.054,195.304-132.662C121.758,8203.721,56.866,8242.56,0,8282.162v-15.704
				c43.017-29.513,90.44-58.595,142.564-87.277C91.285,8205.867,43.857,8232.585,0,8259.386v-15.026
				c38.987-23.61,80.7-47.157,125.369-70.664C81.159,8196.444,39.44,8218.997,0,8241.398v-14.819
				c229.674-129.729,536.884-264.388,935.509-410.982l0.504-0.148c718.648-200.511,868.713-595.033,871.266-1064.473
				c-3.123,5.687-6.37,11.332-9.561,17c-72.791,440.721-289.847,818.143-963.044,1059.672l0.006,0.011
				C492.613,7974.828,217.135,8104.812,0,8224.703v-14.71c216.85-119.357,490.733-248.496,829.547-394.265l0.381-0.132
				c648.142-232.422,869.973-592.418,948.451-1013.772c-1.551,2.625-3.23,5.22-4.797,7.839
				c-15.158,40.51-31.794,80.499-50.109,119.942c-160.88,346.406-450.223,650.373-994.228,897.964
				C441.776,7970.966,200.124,8095.316,0,8206.855v-14.786c199.363-110.935,439.168-234.317,723.585-376.192l0.202-0.095
				c540.825-246.125,828.282-547.896,987.908-891.611c8.206-17.663,16.065-35.438,23.61-53.325
				c-224.003,343.808-581.547,652.159-1111.239,956.456c-99.547,57.193-177.252,101.655-251.554,144.171
				C236.866,8049.094,112.858,8120.051,0,8185.602v-15.007c111.184-64.543,233.032-134.266,366.064-210.39
				c85.301-48.808,175.282-100.294,251.56-144.118c559.958-321.684,926.659-648.111,1145.983-1016.795
				c10.316-27.876,19.944-56.009,28.934-84.389c4.652-33.109,8.581-66.555,11.872-100.319c-1.618-36.116-3.851-72.589-6.51-109.374
				c-7.445-38.923-15.309-78.212-23.37-117.778l-17.644-57.512c-6.846-22.298-13.72-44.68-20.582-67.135
				c-16.966-42.889-33.905-86.048-50.557-129.388c-20.425-43.868-40.599-87.946-60.275-132.142
				c-23.347-44.876-46.247-89.9-68.441-134.991c-25.211-44.8-49.824-89.695-73.586-134.599
				c-26.695-44.761-52.656-89.558-77.661-134.325c-28.016-44.954-55.164-89.897-81.265-134.767
				c-28.777-44.688-56.636-89.326-83.359-133.863c-29.219-44.221-57.465-88.377-84.54-132.394
				c-29.723-44.059-58.422-88.022-85.906-131.823c-29.594-43.149-58.142-86.18-85.492-129.049
				c-29.986-43.109-58.87-86.082-86.549-128.878c-30.764-43.739-60.353-87.311-88.688-130.692
				c-30.059-42.393-58.993-84.618-86.717-126.65c-30.193-42.236-59.261-84.311-87.109-126.167
				c-30.837-42.841-60.493-85.503-88.889-127.943C223.762,3847.58,29.04,3421.294,78.735,3059.672
				c35.08-255.235,590.179-388.021,1118.986-514.511c59.06-14.131,117.79-28.17,175.411-42.298
				c44.764-312.339,268.106-688.697,485.337-1054.657c187.916-316.584,371.213-625.36,429.271-876.565
				c53.742-232.559,8.9-418.956-36.474-571.64h13.496c45.458,153.491,89.667,340.688,35.623,574.54
				c-58.517,253.181-242.313,562.816-430.755,880.268c-215.444,362.957-436.951,736.186-482.958,1044.727l26.421-6.53
				c61.248-287.225,278.288-624.63,492.143-957.044c203.634-316.523,404.357-628.534,463.736-886.615
				c58.506-256.128-14.067-465.953-73.804-638.688L2291.479,0h13.686l2.233,6.448c60.291,174.333,133.535,386.109,74.218,645.794
				c-59.888,260.292-261.221,573.241-465.459,890.727c-211.745,329.137-426.613,663.18-489.053,946.543l25.95-6.51
				c76.06-263.153,287.026-564.33,497.153-864.267c220.208-314.312,439.464-627.275,500.002-891.678h0.006
				c57.688-255.543-25.721-474.083-95.948-658.042c-8.995-23.56-17.772-46.561-26.023-69.015h13.848
				c7.747,20.971,15.936,42.441,24.316,64.4c70.854,185.618,155.019,406.126,96.446,665.528v0.025
				c-61.081,266.777-281.087,580.806-502.04,896.193c-207.642,296.386-416.134,594.011-493.251,853.189l25.346-6.479
				c89.225-240.256,294.555-508.08,500.713-776.956c237.622-309.912,476.347-621.243,537.819-891.116h0.005
				c57.034-255.467-36.748-482.393-117.269-677.213c-18.248-44.156-35.83-86.678-50.854-127.571h13.82
				c14.582,39.326,31.486,80.224,49.018,122.645c81.232,196.561,175.864,425.507,117.929,684.96v0.025
				c-62.116,272.666-301.686,585.116-540.159,896.134c-203.208,265.036-405.599,529.046-495.709,765.14l24.579-6.415
				c100.879-218.703,301.11-456.093,503.226-695.691c255.719-303.136,514.466-609.863,576.655-884.309h0.006
				c56.451-255.677-47.3-490.739-137.969-696.119C2445.977,121.249,2418.538,59.082,2397.833,0h13.748
				c20.369,57.33,47.075,117.832,75.024,181.146c91.459,207.18,196.116,444.29,138.724,704.166v0.025
				c-62.9,277.581-322.666,585.511-579.392,889.848c-198.607,235.439-395.378,468.718-496.851,682.998
				c7.932-2.107,15.824-4.212,23.672-6.331c111.201-198.635,307.06-408.53,505.286-620.93
				c274.342-293.973,553.218-592.805,615.86-870.676h-0.017c55.987-256.262-57.375-499.208-158.008-714.857
				C2495.594,159.046,2457.323,77.039,2432.56,0h13.613c24.557,75.156,62.015,155.442,101.433,239.903
				c101.518,217.555,215.881,462.636,158.982,723.085l-0.028,0.053c-63.381,281.323-343.483,581.461-619.029,876.719
				c-194.045,207.922-385.823,413.431-497.209,607.319l22.609-6.227c120.448-180.225,312.909-365.557,507.654-553.084
				c293.301-282.428,591.858-569.919,654.556-849.806l-0.017-0.008c55.55-256.973-67.12-507.635-177.594-733.365
				C2544.836,196.917,2494.889,94.868,2468.032,0h13.462c26.796,92.76,75.892,193.096,127.675,298.896
				c111.419,227.667,235.142,480.484,178.652,741.804l-0.022,0.025c-63.549,283.755-363.533,572.614-658.234,856.389
				c-189.729,182.699-377.259,363.304-497.332,538.34c7.154-2.015,14.268-4.041,21.343-6.079
				c128.968-163.544,319.167-327.127,511.141-492.219c312.254-268.538,629.239-541.148,691.651-821.468h-0.011
				c55.175-257.869-76.541-516.096-196.715-751.694C2593.798,234.913,2531.379,112.553,2504.539,0h13.345
				c26.879,110.185,88.43,230.858,153.334,358.104c121.165,237.538,253.984,497.909,197.84,760.273l-0.028,0.053
				c-63.325,284.58-381.989,558.62-695.889,828.577c-185.901,159.869-370.111,318.311-497.953,476.093
				c6.656-1.956,13.277-3.913,19.843-5.883c137.135-148.599,326.433-293.016,516.571-438.057
				c330.872-252.408,664.296-506.773,725.998-785.77h-0.011c54.851-258.938-85.654-524.559-215.405-769.833
				C2642.552,273.016,2566.929,130.073,2542.294,0h13.199c24.736,127.468,99.486,268.762,178.17,417.514
				c130.798,247.259,272.445,515.038,216.626,778.566l-0.028,0.053c-62.698,283.662-398.031,539.479-730.801,793.335
				c-182.715,139.382-364.653,278.185-499.627,420.229c6.107-1.878,12.18-3.756,18.198-5.645
				c145.318-135.223,335.148-262.71,524.497-389.882c348.672-234.177,695.777-467.302,756.298-743.097h0.017
				c54.537-260.155-94.531-533.034-233.709-787.782C2691.139,311.258,2601.64,147.406,2581.416,0h13.07
				c20.364,144.602,108.996,306.814,202.021,477.089c140.292,256.797,290.564,531.867,235.019,796.677v0.053
				c-61.629,280.872-410.923,515.469-761.783,751.115c-180.046,120.916-360.511,242.134-502.185,369.68
				c5.525-1.8,11.005-3.599,16.457-5.413c153.67-122.973,345.157-235.212,534.55-346.221
				c365.185-214.043,722.561-423.515,781.492-694.202h0.011c54.285-261.448-103.163-541.483-251.678-805.591
				c-104.512-185.85-204.624-363.903-224.49-523.521c-0.823-6.591-1.467-13.14-2.004-19.667h13.037
				c0.509,6.012,1.108,12.029,1.858,18.094c19.552,157.085,119.054,334.043,222.923,518.749
				c149.667,266.175,308.358,548.388,253.043,814.628v0.053c-60.135,276.206-419.962,487.111-787.644,702.623
				c-177.157,103.829-356.15,208.761-503.842,322.313l1.293-0.456c4.534-1.598,9.074-3.177,13.613-4.735
				c161.854-110.975,355.143-208.812,544.464-304.636c379.884-192.265,743.714-376.414,800.658-640.152h0.011
				c54.067-262.921-111.582-549.983-269.31-823.279c-114.442-198.311-224.748-389.451-245.112-560.406
				c-1.713-14.419-2.765-28.685-3.163-42.796h13.02c0.375,13.616,1.383,27.375,3.04,41.276
				c20.056,168.406,129.69,358.381,243.432,555.477c158.937,275.409,325.873,564.68,270.782,832.395v0.078
				c-58.254,269.761-424.799,455.286-807.521,648.987c-174.078,88.109-351.527,177.927-504.402,277.942l10.786-3.364
				c170.267-99.782,366.411-184.375,556.493-266.343c392.266-169.161,758.576-327.141,813.174-582.234h0.006
				c53.888-264.421-119.816-558.441-286.668-840.838c-124.439-210.625-245.106-414.852-265.951-597.241
				c-2.564-22.401-3.588-44.453-2.989-66.135h13.025c-0.649,21.206,0.353,42.765,2.855,64.666
				c20.532,179.646,140.504,382.703,264.221,592.108c168.112,284.522,343.114,580.745,288.202,850.08v0.05
				c-56.009,261.683-425.292,420.945-820.742,591.478c-172.332,74.316-349.663,150.807-507.816,238.666l5.211-1.441
				c179.62-89.715,380.589-162.271,573.123-231.767c401.894-145.067,766.804-276.8,818.766-521.914h0.011
				c53.708-266.024-127.904-566.905-303.774-858.275c-134.509-222.859-265.71-440.215-287.037-634.014
				c-3.364-30.515-3.957-60.409-1.489-89.637h13.121c-2.569,28.766-2.049,58.187,1.26,88.22
				c21.013,190.939,151.492,407.094,285.263,628.721c177.163,293.503,360.102,596.6,305.341,867.595v0.078
				c-53.451,252.148-421.614,385.054-827.096,531.419c-168.464,60.806-343.405,123.958-504.581,198.845
				c186.975-78.072,390.15-137.969,582.616-194.711c408.51-120.437,768.456-226.556,817.58-460.461h-0.005
				c53.613-267.72-135.78-575.41-320.595-875.672c-144.652-235.011-286.55-465.53-308.347-670.768
				C2791.929,74.52,2792.097,36.72,2797.28,0h13.21c-5.363,36.272-5.62,73.622-1.556,111.901
				c21.483,202.248,162.631,431.553,306.528,665.335c186.13,302.4,376.884,612.281,322.263,885.003l-0.017,0.053
				c-50.675,241.541-414.141,348.706-826.642,470.313c-157.437,46.418-322.061,94.96-478.95,153.816
				c185.727-61.783,380.841-107.118,564.161-149.696c411.958-95.679,763.871-177.406,809.95-399.288h-0.006
				c53.496-269.523-143.538-583.913-337.191-892.929c-154.89-247.135-307.648-490.887-329.898-707.49
				c-4.836-47.087-3.493-92.838,5.245-137.017H2857.756z M2626.689,7828.063l-0.022-0.005 M729.245,7827.57l-0.078,0.04
				 M2626.667,7828.057l-0.073-0.011"/>
		</defs>
		<clipPath id="SVGID_00000063598373430697866070000015047936360353854606_">
			<use xlink:href="#SVGID_1_"  style="overflow:visible;"/>
		</clipPath>
		
			<linearGradient id="SVGID_00000080164385148364047850000006914779571739870121_" gradientUnits="userSpaceOnUse" x1="-33.5328" y1="-70.5946" x2="4001.7307" y2="8999.1152">
			<stop  offset="0" style="stop-color:#1FA2FF"/>
			<stop  offset="0.5" style="stop-color:#12D8FA"/>
			<stop  offset="1" style="stop-color:#A6FFCB"/>
		</linearGradient>
		
			<rect y="0" style="clip-path:url(#SVGID_00000063598373430697866070000015047936360353854606_);fill:url(#SVGID_00000080164385148364047850000006914779571739870121_);" width="4000" height="9000"/>
	</g>
</g>
</svg>
